<svg xmlns="http://www.w3.org/2000/svg" viewBox="0 0 195.8 91.6"><defs><style>.icon{fill:#fff;stroke:none;}.a{fill-rule:evenodd;}</style></defs><path class="icon" d="M154.2,100,200,70.8v58.4Z" transform="translate(-4.2 -54.2)"/><path class="icon a" d="M4.2,100c0-10.2,30.3-45.8,78.1-45.8,55.7,0,88.5,45.8,88.5,45.8S138,145.8,82.3,145.8C34.5,145.8,4.2,110.2,4.2,100Zm37.5-6.2a6.17,6.17,0,0,1-6.2,6.2,6.23,6.23,0,0,1-6.2-6.2,6.2,6.2,0,0,1,12.4,0ZM68.3,100c0,12.4-4,23.3-9.9,29.2C67.8,126.7,75,114.6,75,100S67.8,73.3,58.3,70.8C64.3,76.7,68.3,87.6,68.3,100Z" transform="translate(-4.2 -54.2)"/></svg>
