<svg xmlns="http://www.w3.org/2000/svg" viewBox="0 0 158.4 133.3"><defs><style>.icon{fill:#fff;stroke:none;fill-rule:evenodd;}</style></defs><path class="icon" d="M95,157a56.31,56.31,0,0,1-24.9,5.7,57,57,0,0,1-24.3-5.4l-16.5,9.4,2-19.9A37.79,37.79,0,0,1,20.8,121c0-10.7,4.7-20.4,12.5-27.8C34.1,125.6,61.1,151,95,157Z" transform="translate(-20.8 -33.4)"/><path class="icon" d="M179.2,91.7c0,13.6-5.5,26.1-14.7,36l2.8,27.8-23-13.1a78.49,78.49,0,0,1-33.9,7.6c-38,0-68.8-26.1-68.8-58.3s30.8-58.3,68.8-58.3S179.2,59.4,179.2,91.7ZM77.1,100a8.3,8.3,0,1,0-8.3-8.3A8.28,8.28,0,0,0,77.1,100Zm41.7-8.3a8.3,8.3,0,1,1-8.3-8.3A8.28,8.28,0,0,1,118.8,91.7Zm25,8.3a8.3,8.3,0,1,0-8.3-8.3A8.16,8.16,0,0,0,143.8,100Z" transform="translate(-20.8 -33.4)"/></svg>
