<svg xmlns="http://www.w3.org/2000/svg" viewBox="0 0 141.6 141.6"><defs><style>.icon{fill:#fff;stroke:none;fill-rule:evenodd;}</style></defs><path class="icon" d="M100,170.8A70.8,70.8,0,1,0,29.2,100,70.8,70.8,0,0,0,100,170.8Zm-27.1-75A10.4,10.4,0,1,0,62.5,85.4,10.39,10.39,0,0,0,72.9,95.8Zm64.6-10.4A10.4,10.4,0,1,1,127.1,75,10.39,10.39,0,0,1,137.5,85.4ZM59.9,118.2a40.5,40.5,0,0,1-1.6-5.7H70.7l.6,1.8a28.07,28.07,0,0,0,7.2,11.1,30.93,30.93,0,0,0,42.8,0,29.55,29.55,0,0,0,7.2-11.1l.6-1.8h12.4a40.5,40.5,0,0,1-1.6,5.7,41.56,41.56,0,0,1-10.1,15.6,43.4,43.4,0,0,1-30,12.1,42.6,42.6,0,0,1-30-12.1A43.62,43.62,0,0,1,59.9,118.2Z" transform="translate(-29.2 -29.2)"/></svg>
