<svg xmlns="http://www.w3.org/2000/svg" viewBox="0 0 525 356"><defs><style>.a{fill:#ebf000;}.b{fill:#fff;}.c,.g{fill:#00bebe;}.d{fill:#ef5285;}.e{fill:none;stroke:#ef5285;stroke-miterlimit:10;stroke-width:2px;}.f{fill:#444;}</style></defs><rect class="a" width="525" height="300"/><rect class="b" y="224.25" width="525" height="1"/><rect class="b" y="149.5" width="525" height="1"/><rect class="b" y="74.75" width="525" height="1"/><rect class="b" x="16.38" width="1" height="300"/><rect class="b" x="32.75" width="1" height="300"/><rect class="b" x="49.13" width="1" height="300"/><rect class="b" x="65.5" width="1" height="300"/><rect class="b" x="81.88" width="1" height="300"/><rect class="b" x="98.25" width="1" height="300"/><rect class="b" x="114.63" width="1" height="300"/><rect class="b" x="131" width="1" height="300"/><rect class="b" x="147.38" width="1" height="300"/><rect class="b" x="163.75" width="1" height="300"/><rect class="b" x="180.13" width="1" height="300"/><rect class="b" x="196.5" width="1" height="300"/><rect class="b" x="212.88" width="1" height="300"/><rect class="b" x="229.25" width="1" height="300"/><rect class="b" x="245.63" width="1" height="300"/><rect class="b" x="262" width="1" height="300"/><rect class="b" x="278.38" width="1" height="300"/><rect class="b" x="294.75" width="1" height="300"/><rect class="b" x="311.13" width="1" height="300"/><rect class="b" x="327.5" width="1" height="300"/><rect class="b" x="343.88" width="1" height="300"/><rect class="b" x="360.25" width="1" height="300"/><rect class="b" x="376.63" width="1" height="300"/><rect class="b" x="393" width="1" height="300"/><rect class="b" x="409.38" width="1" height="300"/><rect class="b" x="425.75" width="1" height="300"/><rect class="b" x="442.13" width="1" height="300"/><rect class="b" x="458.5" width="1" height="300"/><rect class="b" x="474.88" width="1" height="300"/><rect class="b" x="491.25" width="1" height="300"/><rect class="b" x="507.63" width="1" height="300"/><rect class="c" x="13.5" y="266" width="6" height="34"/><rect class="c" x="30.5" y="209" width="6" height="91"/><rect class="c" x="46.5" y="215" width="6" height="85"/><rect class="c" x="62.5" y="152" width="6" height="148"/><rect class="c" x="78.5" y="185" width="6" height="115"/><rect class="c" x="95.5" y="203" width="6" height="97"/><rect class="c" x="111.5" y="261" width="6" height="39"/><rect class="c" x="128.5" y="264" width="6" height="36"/><rect class="c" x="144.5" y="266" width="6" height="34"/><rect class="c" x="161.5" y="200" width="6" height="100"/><rect class="c" x="177.5" y="205" width="6" height="95"/><rect class="c" x="193.5" y="191" width="6" height="109"/><rect class="c" x="210.5" y="252" width="6" height="48"/><rect class="c" x="226.5" y="274" width="6" height="26"/><rect class="c" x="243.5" y="275" width="6" height="25"/><rect class="c" x="259.5" y="209" width="6" height="91"/><rect class="c" x="341.5" y="239" width="6" height="61"/><rect class="c" x="357.5" y="231" width="6" height="69"/><rect class="c" x="374.5" y="231" width="6" height="69"/><rect class="c" x="390.5" y="231" width="6" height="69"/><rect class="c" x="406.5" y="188" width="6" height="112"/><rect class="c" x="422.5" y="200" width="6" height="100"/><rect class="c" x="439.5" y="194" width="6" height="106"/><rect class="c" x="456.5" y="264" width="6" height="36"/><rect class="c" x="472.5" y="218" width="6" height="82"/><rect class="c" x="488.5" y="288" width="6" height="12"/><rect class="c" x="504.5" y="200" width="6" height="100"/><rect class="c" x="275.5" y="222" width="6" height="78"/><rect class="c" x="292.5" y="58" width="6" height="242"/><rect class="c" x="308.5" y="246" width="6" height="54"/><rect class="c" x="325.5" y="186" width="6" height="114"/><path class="d" d="M19.5,219a3,3,0,1,1-3-3A3,3,0,0,1,19.5,219Z" transform="translate(0 -3)"/><path class="d" d="M36.5,18a3,3,0,1,1-3-3A3,3,0,0,1,36.5,18Z" transform="translate(0 -3)"/><path class="d" d="M52.5,32a3,3,0,1,1-3-3A3,3,0,0,1,52.5,32Z" transform="translate(0 -3)"/><path class="d" d="M68.5,38a3,3,0,1,1-3-3A3,3,0,0,1,68.5,38Z" transform="translate(0 -3)"/><path class="d" d="M85.5,38a3,3,0,1,1-3-3A3,3,0,0,1,85.5,38Z" transform="translate(0 -3)"/><path class="d" d="M101.5,39a3,3,0,1,1-3-3A3,3,0,0,1,101.5,39Z" transform="translate(0 -3)"/><path class="d" d="M117.5,203a3,3,0,1,1-3-3A3,3,0,0,1,117.5,203Z" transform="translate(0 -3)"/><path class="d" d="M134.5,228a3,3,0,1,1-3-3A3,3,0,0,1,134.5,228Z" transform="translate(0 -3)"/><path class="d" d="M150.5,209a3,3,0,1,1-3-3A3,3,0,0,1,150.5,209Z" transform="translate(0 -3)"/><path class="d" d="M167.5,63a3,3,0,1,1-3-3A3,3,0,0,1,167.5,63Z" transform="translate(0 -3)"/><path class="d" d="M183.5,70a3,3,0,1,1-3-3A3,3,0,0,1,183.5,70Z" transform="translate(0 -3)"/><path class="d" d="M200.5,93a3,3,0,1,1-3-3A3,3,0,0,1,200.5,93Z" transform="translate(0 -3)"/><path class="d" d="M216.5,108a3,3,0,1,1-3-3A3,3,0,0,1,216.5,108Z" transform="translate(0 -3)"/><path class="d" d="M232.5,216a3,3,0,1,1-3-3A3,3,0,0,1,232.5,216Z" transform="translate(0 -3)"/><path class="d" d="M249.5,222a3,3,0,1,1-3-3A3,3,0,0,1,249.5,222Z" transform="translate(0 -3)"/><path class="d" d="M265.5,63a3,3,0,1,1-3-3A3,3,0,0,1,265.5,63Z" transform="translate(0 -3)"/><path class="d" d="M281.5,48a3,3,0,1,1-3-3A3,3,0,0,1,281.5,48Z" transform="translate(0 -3)"/><path class="d" d="M298.5,56a3,3,0,1,1-3-3A3,3,0,0,1,298.5,56Z" transform="translate(0 -3)"/><path class="d" d="M314.5,54a3,3,0,1,1-3-3A3,3,0,0,1,314.5,54Z" transform="translate(0 -3)"/><path class="d" d="M429.5,54a3,3,0,1,1-3-3A3,3,0,0,1,429.5,54Z" transform="translate(0 -3)"/><path class="d" d="M331.5,48a3,3,0,1,1-3-3A3,3,0,0,1,331.5,48Z" transform="translate(0 -3)"/><path class="d" d="M347.5,203a3,3,0,1,1-3-3A3,3,0,0,1,347.5,203Z" transform="translate(0 -3)"/><path class="d" d="M363.5,216a3,3,0,1,1-3-3A3,3,0,0,1,363.5,216Z" transform="translate(0 -3)"/><path class="d" d="M380.5,48a3,3,0,1,1-3-3A3,3,0,0,1,380.5,48Z" transform="translate(0 -3)"/><path class="d" d="M396.5,48a3,3,0,1,1-3-3A3,3,0,0,1,396.5,48Z" transform="translate(0 -3)"/><path class="d" d="M445.5,46a3,3,0,1,1-3-3A3,3,0,0,1,445.5,46Z" transform="translate(0 -3)"/><path class="d" d="M462.5,203a3,3,0,1,1-3-3A3,3,0,0,1,462.5,203Z" transform="translate(0 -3)"/><path class="d" d="M478.5,222a3,3,0,1,1-3-3A3,3,0,0,1,478.5,222Z" transform="translate(0 -3)"/><path class="d" d="M494.5,39a3,3,0,1,1-3-3A3,3,0,0,1,494.5,39Z" transform="translate(0 -3)"/><path class="d" d="M511.5,49a3,3,0,1,1-3-3A3,3,0,0,1,511.5,49Z" transform="translate(0 -3)"/><path class="d" d="M412.5,56a3,3,0,1,1-3-3A3,3,0,0,1,412.5,56Z" transform="translate(0 -3)"/><polyline class="e" points="16.5 216 33.5 15 49.5 29 65.5 35 82.5 35 98.5 36 114.5 200 131.5 225 147.5 206 164.5 60 180.5 67 197 90.5 213.5 105 229.5 213 246.5 219 262.5 60 278.5 45 295.5 53 311.5 51 328.5 45 344.5 200 360.5 213 377.5 45 393.5 45 409.5 53 426.5 51 442.5 43 459.5 200 475.5 219 491.5 36 508.5 46"/><path class="f" d="M14.49,318.94A1.86,1.86,0,0,1,15.62,317v0a1.76,1.76,0,0,1-1-1.74,1.82,1.82,0,0,1,2-2.07,1.82,1.82,0,0,1,2,2.06,1.76,1.76,0,0,1-1,1.75v0a1.87,1.87,0,0,1,1.14,1.92,1.92,1.92,0,0,1-2.18,2.15A1.92,1.92,0,0,1,14.49,318.94Zm3.29,0v-.25c0-.81-.42-1.24-1.12-1.24s-1.12.44-1.12,1.24V319c0,.92.41,1.29,1.12,1.29S17.78,319.88,17.78,319Zm-.14-3.63v-.12c0-.81-.31-1.22-1-1.22s-1,.41-1,1.23v.12c0,.83.35,1.2,1,1.2S17.64,316.18,17.64,315.34Z" transform="translate(0 -3)"/><path class="f" d="M26.28,320.25c0,1-.35,1.36-1.24,1.36a11.19,11.19,0,0,1-1.25-.09l-.15-.85c.44,0,.82,0,1.11,0,.45,0,.53-.09.53-.44v-1.81H22a5.9,5.9,0,0,1-1.5,3.17l-.72-.57c1.16-1.25,1.39-2.89,1.39-4.77v-3.53h5.16Zm-1-2.64V316H22.11v.3c0,.45,0,.88-.05,1.31Zm-3.17-4v1.54h3.17v-1.54Z" transform="translate(0 -3)"/><path class="f" d="M30.17,314.25l-1.57.56,0-.93,1.67-.61h1V321h-1Z" transform="translate(0 -3)"/><path class="f" d="M40,313v8.62h-1V321H35.24v.62h-1V313Zm-4.8.87v2.65h3.81v-2.65Zm3.81,6.26v-2.75H35.24v2.75Z" transform="translate(0 -3)"/><path class="f" d="M479.49,318.94a1.86,1.86,0,0,1,1.13-1.92v0a1.76,1.76,0,0,1-1-1.74,2,2,0,1,1,4,0,1.76,1.76,0,0,1-1,1.75v0a1.87,1.87,0,0,1,1.14,1.92,2.18,2.18,0,0,1-4.35,0Zm3.29,0v-.25c0-.81-.42-1.24-1.12-1.24s-1.12.44-1.12,1.24V319c0,.92.41,1.29,1.12,1.29S482.78,319.88,482.78,319Zm-.14-3.63v-.12c0-.81-.31-1.22-1-1.22s-1,.41-1,1.23v.12c0,.83.35,1.2,1,1.2S482.64,316.18,482.64,315.34Z" transform="translate(0 -3)"/><path class="f" d="M491.28,320.25c0,1-.35,1.36-1.24,1.36a11.19,11.19,0,0,1-1.25-.09l-.15-.85c.44,0,.82,0,1.11,0,.45,0,.53-.09.53-.44v-1.81H487a5.9,5.9,0,0,1-1.5,3.17l-.72-.57c1.16-1.25,1.39-2.89,1.39-4.77v-3.53h5.16Zm-1-2.64V316h-3.17v.3c0,.45,0,.88-.05,1.31Zm-3.17-4v1.54h3.17v-1.54Z" transform="translate(0 -3)"/><path class="f" d="M493.14,319.13l1-.11c.08.85.42,1.17,1.14,1.17h.09c.66,0,1-.42,1-1.3v-.13c0-.87-.42-1.29-1.16-1.29h-.53v-1h.54c.58,0,1.08-.32,1.08-1.21v-.14c0-.71-.29-1.1-.93-1.1h-.08c-.56,0-.88.3-1,1l-1-.11a2,2,0,0,1,4,.19,1.85,1.85,0,0,1-1,1.79v0a1.77,1.77,0,0,1,1.07,1.82,2,2,0,0,1-2.15,2.27A1.85,1.85,0,0,1,493.14,319.13Z" transform="translate(0 -3)"/><path class="f" d="M500.5,314.25l-1.57.56,0-.93,1.67-.61h1V321H500.5Z" transform="translate(0 -3)"/><path class="f" d="M510.37,313v8.62h-1V321h-3.81v.62h-1V313Zm-4.8.87v2.65h3.81v-2.65Zm3.81,6.26v-2.75h-3.81v2.75Z" transform="translate(0 -3)"/><circle class="d" cx="7.5" cy="348.5" r="7.5"/><path class="f" d="M35.55,351.07v1.35H24.84v-1.35Z" transform="translate(0 -3)"/><path class="f" d="M46,346.18v12.08H44.62v-.87H39.29v.87H37.93V346.18Zm-6.72,1.22v3.71h5.33V347.4Zm5.33,8.77v-3.85H39.29v3.85Z" transform="translate(0 -3)"/><path class="f" d="M58.48,351.86a5.39,5.39,0,0,1-4.45,5.7l-.63-1.11c2.65-.66,3.64-2.23,3.64-4.55,0-1.85-.83-3.45-2.58-3.76-.5,5.29-1.62,8.37-3.34,8.37-1.24,0-2.32-1.5-2.32-3.76,0-3.22,2.05-5.85,5.09-5.85C57.1,346.9,58.48,349.22,58.48,351.86Zm-5.35-3.7c-1.93.39-3,2.34-3,4.56,0,1.46.49,2.37.94,2.37C51.75,355.09,52.71,353.08,53.13,348.16Z" transform="translate(0 -3)"/><path class="f" d="M71.06,357.21l-1,1a10.19,10.19,0,0,1-4.43-6.29A9.56,9.56,0,0,1,61,358.29l-.95-1c4.42-2.5,4.62-7.25,4.65-11.91H66.2c0,.76,0,1.51-.07,2.27C66.55,352.61,68,355.44,71.06,357.21Z" transform="translate(0 -3)"/><path class="f" d="M71.85,350.05l.84-.79a10.17,10.17,0,0,1,1.85,1.9l-1,1A9.84,9.84,0,0,0,71.85,350.05Zm3,3.84a33.07,33.07,0,0,1-1.73,4.31L72,357.33a25.7,25.7,0,0,0,1.9-4.28Zm-1.28-5.46a9.58,9.58,0,0,0-1.54-2.06l.87-.75a9.48,9.48,0,0,1,1.74,1.88Zm2.09,3.3H77v2a5.53,5.53,0,0,1-2.12,4.67l-.84-.87a4.43,4.43,0,0,0,1.67-3.81Zm.24-1.61c.4-.81.75-1.58,1-2.23H74.72v-1.15H78v-1.43h1.33v1.43H83v1.15H78.45c-.33.67-.69,1.4-1.13,2.17,1.08,0,2.19-.12,3.31-.19-.29-.38-.62-.76-1-1.14l.94-.6A13.48,13.48,0,0,1,83,351l-1.13.72c-.14-.28-.31-.56-.49-.85-2.14.21-4.29.36-6.28.48l-.37-1.22Zm1.9,1.71H79.1v6H77.84Zm5.23,3.67c-.11,2.34-.34,2.59-1.37,2.59h-.28c-1.17,0-1.39-.43-1.39-1.75v-4.62h1.29v4.6c0,.47,0,.57.18.57h.22c.14,0,.19-.1.23-1.69Z" transform="translate(0 -3)"/><path class="f" d="M87,351.84a10.32,10.32,0,0,0,2,6.31l-.91.53A11.55,11.55,0,0,1,88,345l.91.53A10.29,10.29,0,0,0,87,351.84Z" transform="translate(0 -3)"/><path class="f" d="M92.46,351.51c-1.39,0-2.2-1.18-2.2-2.68s.8-2.65,2.2-2.65,2.21,1.18,2.21,2.65S93.9,351.51,92.46,351.51Zm6.76-5.13-6.41,10.79H91.34l6.41-10.79Zm-6.78,4.15c.68,0,.94-.69.94-1.7s-.26-1.68-.94-1.68-.94.7-.94,1.68S91.8,350.53,92.44,350.53Zm7.85,4.06c0,1.5-.77,2.67-2.22,2.67s-2.19-1.17-2.19-2.67.81-2.65,2.21-2.65S100.29,353.12,100.29,354.59Zm-1.28,0c0-1-.28-1.68-.94-1.68s-.93.71-.93,1.68.29,1.69.93,1.69S99,355.58,99,354.59Z" transform="translate(0 -3)"/><path class="f" d="M104.76,351.84a10.57,10.57,0,0,1-2.24,6.84l-.91-.53a11,11,0,0,0,0-12.61l.91-.53A10.54,10.54,0,0,1,104.76,351.84Z" transform="translate(0 -3)"/><path class="f" d="M191.55,351.07v1.35H180.84v-1.35Z" transform="translate(0 -3)"/><path class="f" d="M202,346.18v12.08h-1.39v-.87h-5.33v.87h-1.36V346.18Zm-6.72,1.22v3.71h5.33V347.4Zm5.33,8.77v-3.85h-5.33v3.85Z" transform="translate(0 -3)"/><path class="f" d="M214.48,351.86a5.39,5.39,0,0,1-4.45,5.7l-.63-1.11c2.65-.66,3.64-2.23,3.64-4.55,0-1.85-.83-3.45-2.58-3.76-.5,5.29-1.62,8.37-3.34,8.37-1.24,0-2.32-1.5-2.32-3.76,0-3.22,2-5.85,5.09-5.85C213.1,346.9,214.48,349.22,214.48,351.86Zm-5.35-3.7c-1.93.39-3,2.34-3,4.56,0,1.46.49,2.37.94,2.37C207.75,355.09,208.71,353.08,209.13,348.16Z" transform="translate(0 -3)"/><path class="f" d="M216.34,353.45l1.15.23a13,13,0,0,1-.7,3.77l-1-.55A10.3,10.3,0,0,0,216.34,353.45Zm2.61-.89v5.81h-1.29v-5.63l-1.53.18-.28-1.19.56,0,.92-1.54a9,9,0,0,0-1.33-1.37,28.9,28.9,0,0,0,1.75-3.48l1.2.57c-.41.81-.9,1.69-1.49,2.67l.53.45c.48-.87.87-1.65,1.17-2.31l1.17.63c-.68,1.29-1.54,2.7-2.58,4.3l1.39-.13c-.12-.39-.26-.78-.43-1.19l.87-.43a12.5,12.5,0,0,1,1.07,2.69l-1.1.54-.13-.61Zm1.82,1.47,1.08.29a14.36,14.36,0,0,1-.76,3.5l-1.21-.53a7.09,7.09,0,0,0,.51-1.33l-.93.35a12.37,12.37,0,0,0-.42-2.66l.91-.36a13,13,0,0,1,.58,2.14C220.64,355,220.71,354.46,220.77,354Zm1.16-8.66,1.2.49a7.41,7.41,0,0,1-2.38,3.56l-.8-.84A6.56,6.56,0,0,0,221.93,345.37Zm1.71,2.7c-.25.79-.56,1.63-.94,2.57l1.89-.2c-.22-.4-.48-.82-.76-1.23l.94-.55a13.51,13.51,0,0,1,1.85,3l-1.17.7q-.15-.44-.36-.9l-2.15.33a11.3,11.3,0,0,1,1.92,2l-1,.93a10.58,10.58,0,0,0-1.78-2.23l.69-.65L221,352l-.4-1.21.86-.06a28.37,28.37,0,0,0,.91-3.07Zm.68,7.37,1.13.3c-.14,2.2-.37,2.42-1.49,2.42h-.53c-1.28,0-1.53-.42-1.53-1.71v-2.66h1.28v2.63c0,.45,0,.56.3.56H224C224.18,357,224.27,356.9,224.32,355.44Zm-.49-9.56,1.08-.55a6.82,6.82,0,0,0,2.27,2.94l-1,1A8.74,8.74,0,0,1,223.83,345.88Zm3.39,11.23-1.27.59a15,15,0,0,0-.9-3.42l1-.48A15.39,15.39,0,0,1,227.22,357.11Z" transform="translate(0 -3)"/><path class="f" d="M231,351.11c0,.51,0,1,0,1.57,0,4.58-.31,5.63-1.5,5.63a5.36,5.36,0,0,1-1.16-.11l-.14-1.06a7.24,7.24,0,0,0,.87.05c.5,0,.68-.38.7-4.07a8.41,8.41,0,0,1-1.46,1.8l-.68-.84a8,8,0,0,0,2.08-3.47,10,10,0,0,0-.21-1.35,8.16,8.16,0,0,1-1.13,1.29l-.7-.82a8.58,8.58,0,0,0,1.38-1.77,7.59,7.59,0,0,0-1.19-1.76l.89-.7a9.38,9.38,0,0,1,1,1.22,13.29,13.29,0,0,0,.55-1.41l1.12.47a17.6,17.6,0,0,1-1,2.15,8.24,8.24,0,0,1,.57,2.58,8.71,8.71,0,0,0,1.36-3.07l.78.17v-.5h-1.73v-1h1.73v-.8h1.25v.8h1.56v-.8h1.26v.8H239v1h-1.8V348h-1l-.26.5h2.57v1h-2.65v.49h2.26v.92h-2.26v.5h2.26v.91h-2.26v.52h2.93v1h-6.95v-2.51l-.46.63Zm7.43,7.25a10.74,10.74,0,0,1-3.35-1,12.35,12.35,0,0,1-3.45,1l-.6-.95a12.83,12.83,0,0,0,2.9-.7,8.22,8.22,0,0,1-1.6-1.47h-.89v-1h6l.77.63a7.58,7.58,0,0,1-1.91,1.84,10.94,10.94,0,0,0,2.83.54Zm-3.81-8.95h-1.54v.49h1.54Zm0,1.41h-1.54v.5h1.54Zm0,1.41h-1.54v.52h1.54Zm-.27-5.12V348h-.88l-.18.5h1.43c.11-.36.21-.7.26-1l.93.19v-.57Zm.73,9.06a6.06,6.06,0,0,0,1.2-.92h-2.45A7.07,7.07,0,0,0,235.09,356.17Z" transform="translate(0 -3)"/><path class="f" d="M242.55,350.76v7.6h-1.3v-5.68a12.78,12.78,0,0,1-.91,1l-.73-1.07a11.87,11.87,0,0,0,2.77-4.46l1.09.75A15.55,15.55,0,0,1,242.55,350.76Zm-2.06-1.09-.77-1a9.06,9.06,0,0,0,2.24-3.37l1.14.67A12.76,12.76,0,0,1,240.49,349.67Zm10.38,4.6h-1.6v2.48c0,1.13-.4,1.59-1.44,1.59a12.87,12.87,0,0,1-1.47-.1l-.18-1.1c.47,0,.92,0,1.24,0s.54-.1.54-.41v-2.5H243v-1.13H248v-.85h-4.77v-1.12h7.5v1.12h-1.42v.85h1.6Zm-1-3.83h-6v-4.77h6Zm-3.14,5.94-1.09.8A10.16,10.16,0,0,0,244.1,355l.9-.67A9.89,9.89,0,0,1,246.78,356.38Zm1.83-9.59h-3.43v.72h3.43Zm0,1.77h-3.43v.76h3.43Z" transform="translate(0 -3)"/><path class="f" d="M255.36,351.91a11.88,11.88,0,0,1-2.06,4.65l-1.12-.77a10.33,10.33,0,0,0,1.95-4.27Zm2.52-1.65V356c0,1.31-.49,1.87-1.61,1.87a9.18,9.18,0,0,1-1.74-.18v-1.24a7.81,7.81,0,0,0,1.35.12c.45,0,.59-.19.59-.62v-5.66h-4V349h4v-3.32h1.41V349h3.94v1.22Zm2.14,1.08a20.5,20.5,0,0,1,2.13,4.47l-1.3.66a18.08,18.08,0,0,0-1.9-4.56Zm-.39-4.55a1.38,1.38,0,0,1,2.75,0,1.38,1.38,0,0,1-2.75,0Zm.58,0a.81.81,0,0,0,.81.81.8.8,0,0,0,.78-.81A.78.78,0,0,0,261,346,.8.8,0,0,0,260.21,346.79Z" transform="translate(0 -3)"/><path class="f" d="M269.73,350.3v7.52h-1.49v-6.27a21.08,21.08,0,0,1-4.05,2.55l-.73-1.17a20.92,20.92,0,0,0,8.31-7.07l1.15.8A19.39,19.39,0,0,1,269.73,350.3Z" transform="translate(0 -3)"/><path class="f" d="M274.36,348.37l.84-1a19.14,19.14,0,0,1,3.44,2.5L277.7,351A14.73,14.73,0,0,0,274.36,348.37Zm9.05,2.06a10.47,10.47,0,0,1-8.09,7.07l-.57-1.3a9.53,9.53,0,0,0,7.65-6.84Z" transform="translate(0 -3)"/><path class="f" d="M291.76,354.27a25,25,0,0,0-4.48-2.75v6.26h-1.41V345.86h1.41v4.25a41.77,41.77,0,0,1,5.34,2.92Z" transform="translate(0 -3)"/><path class="f" d="M305.18,357.47l-1,.89a11,11,0,0,1-2.09-2.68,10.37,10.37,0,0,1-2.39,2.69l-.87-.88a9.18,9.18,0,0,0,2.61-3.14,19.55,19.55,0,0,1-1-3l-.45.94-.92-.84.28-.56-.67.69a6.77,6.77,0,0,1-1.22-1.18v1.11H296.2l.85.15-.28.9h3v1.06h-.94a7.26,7.26,0,0,1-.93,2.41l1.31.87-.93.94c-.36-.29-.75-.57-1.17-.87a7.57,7.57,0,0,1-2.47,1.37l-.64-.92a6.92,6.92,0,0,0,2.11-1.11c-.52-.32-1.09-.64-1.72-1,.24-.48.49-1.08.74-1.73H293.9v-1.06h1.58l.35-1.11.35.06v-.93a7.4,7.4,0,0,1-1.66,1.28l-.69-.81a6.32,6.32,0,0,0,2.12-1.87h-2v-1.08h.91a9,9,0,0,0-.59-1.83l.94-.45a8.62,8.62,0,0,1,.78,1.84l-1,.44h1.19v-2.74h1.25v2.74h1.05l-.83-.44a18.34,18.34,0,0,0,.8-1.91l1.11.55c-.27.54-.6,1.13-1,1.8h1.09v1.08h-1.92a6,6,0,0,0,1.72,1.46,18.21,18.21,0,0,0,1.39-5.25l1.32.24c-.13.74-.28,1.51-.49,2.28H305V349h-.85a16.37,16.37,0,0,1-1.36,5.38A9.78,9.78,0,0,0,305.18,357.47Zm-8.79-3.88-.5,1.31.95.5a5.34,5.34,0,0,0,.67-1.81Zm5.69-.78a15.74,15.74,0,0,0,.74-3.78h-1.51l-.1.29A19.35,19.35,0,0,0,302.08,352.81Z" transform="translate(0 -3)"/><rect class="g" x="155.5" y="341" width="15" height="15"/><path d="M4.54,241.2l2.3-2.82a3.89,3.89,0,0,0,.84-2.13c0-.75-.29-1.16-.93-1.16H6.69c-.6,0-.9.33-1,1.17l-1-.14c.13-1.29.71-2,2-2a1.84,1.84,0,0,1,2,2.06,4.77,4.77,0,0,1-1.07,2.68l-1.73,2.18v0H8.75v.9H4.54Z" transform="translate(0 -3)"/><path d="M9.42,243.68l.83-3.14,1.07.11-1,3.16Z" transform="translate(0 -3)"/><path d="M12.14,238.11c0-2.91.66-3.94,2.2-3.94s2.21,1,2.21,3.94-.65,4-2.21,4S12.14,241,12.14,238.11Zm3.34.13V238c0-2.12-.27-2.85-1.14-2.85s-1.13.73-1.13,2.85v.27c0,2.16.27,2.91,1.13,2.91S15.48,240.39,15.48,238.24Z" transform="translate(0 -3)"/><path d="M17.47,238.11c0-2.91.66-3.94,2.2-3.94s2.21,1,2.21,3.94-.65,4-2.21,4S17.47,241,17.47,238.11Zm3.34.13V238c0-2.12-.27-2.85-1.14-2.85s-1.13.73-1.13,2.85v.27c0,2.16.27,2.91,1.13,2.91S20.81,240.39,20.81,238.24Z" transform="translate(0 -3)"/><path d="M22.8,238.11c0-2.91.66-3.94,2.2-3.94s2.21,1,2.21,3.94-.65,4-2.21,4S22.8,241,22.8,238.11Zm3.34.13V238c0-2.12-.27-2.85-1.14-2.85s-1.13.73-1.13,2.85v.27c0,2.16.27,2.91,1.13,2.91S26.14,240.39,26.14,238.24Z" transform="translate(0 -3)"/><path d="M9,164.93v.9H8.14v1.43H7.2v-1.43H4.39V165l2.82-5.46h.93v5.41Zm-1.76,0v-3.56l-1.81,3.52v0Z" transform="translate(0 -3)"/><path d="M9.42,168.93l.83-3.14,1.07.11-1,3.16Z" transform="translate(0 -3)"/><path d="M12.14,163.36c0-2.91.66-3.94,2.2-3.94s2.21,1,2.21,3.94-.65,4-2.21,4S12.14,166.28,12.14,163.36Zm3.34.13v-.27c0-2.12-.27-2.85-1.14-2.85s-1.13.73-1.13,2.85v.27c0,2.16.27,2.91,1.13,2.91S15.48,165.64,15.48,163.49Z" transform="translate(0 -3)"/><path d="M17.47,163.36c0-2.91.66-3.94,2.2-3.94s2.21,1,2.21,3.94-.65,4-2.21,4S17.47,166.28,17.47,163.36Zm3.34.13v-.27c0-2.12-.27-2.85-1.14-2.85s-1.13.73-1.13,2.85v.27c0,2.16.27,2.91,1.13,2.91S20.81,165.64,20.81,163.49Z" transform="translate(0 -3)"/><path d="M22.8,163.36c0-2.91.66-3.94,2.2-3.94s2.21,1,2.21,3.94-.65,4-2.21,4S22.8,166.28,22.8,163.36Zm3.34.13v-.27c0-2.12-.27-2.85-1.14-2.85s-1.13.73-1.13,2.85v.27c0,2.16.27,2.91,1.13,2.91S26.14,165.64,26.14,163.49Z" transform="translate(0 -3)"/><path d="M8.84,90c0,1.84-.9,2.64-2.15,2.64s-2.15-.78-2.15-2.4A4.82,4.82,0,0,1,5,88.07c.47-1,1.08-2.37,1.55-3.3h1l-1.41,3A1.5,1.5,0,0,1,7,87.54C8,87.54,8.84,88.32,8.84,90Zm-1.06,0c0-1.1-.46-1.53-1-1.53-.8,0-1.14.67-1.14,1.75s.48,1.52,1.11,1.52,1.08-.45,1.08-1.57Z" transform="translate(0 -3)"/><path d="M9.42,94.18,10.25,91l1.07.11-1,3.16Z" transform="translate(0 -3)"/><path d="M12.14,88.61c0-2.91.66-3.94,2.2-3.94s2.21,1,2.21,3.94-.65,4-2.21,4S12.14,91.53,12.14,88.61Zm3.34.13v-.27c0-2.12-.27-2.85-1.14-2.85s-1.13.73-1.13,2.85v.27c0,2.16.27,2.91,1.13,2.91S15.48,90.89,15.48,88.74Z" transform="translate(0 -3)"/><path d="M17.47,88.61c0-2.91.66-3.94,2.2-3.94s2.21,1,2.21,3.94-.65,4-2.21,4S17.47,91.53,17.47,88.61Zm3.34.13v-.27c0-2.12-.27-2.85-1.14-2.85s-1.13.73-1.13,2.85v.27c0,2.16.27,2.91,1.13,2.91S20.81,90.89,20.81,88.74Z" transform="translate(0 -3)"/><path d="M22.8,88.61c0-2.91.66-3.94,2.2-3.94s2.21,1,2.21,3.94-.65,4-2.21,4S22.8,91.53,22.8,88.61Zm3.34.13v-.27c0-2.12-.27-2.85-1.14-2.85s-1.13.73-1.13,2.85v.27c0,2.16.27,2.91,1.13,2.91S26.14,90.89,26.14,88.74Z" transform="translate(0 -3)"/><path d="M4.49,14.73a1.86,1.86,0,0,1,1.13-1.92v0a1.76,1.76,0,0,1-1-1.74A1.82,1.82,0,0,1,6.66,9a1.82,1.82,0,0,1,2,2.06,1.76,1.76,0,0,1-1,1.75v0a1.87,1.87,0,0,1,1.14,1.92,1.92,1.92,0,0,1-2.18,2.15A1.92,1.92,0,0,1,4.49,14.73Zm3.29,0v-.25c0-.81-.42-1.24-1.12-1.24s-1.12.44-1.12,1.24v.24C5.54,15.67,6,16,6.66,16S7.78,15.67,7.78,14.76Zm-.14-3.63V11c0-.81-.31-1.22-1-1.22s-1,.41-1,1.23v.12c0,.83.35,1.2,1,1.2S7.64,12,7.64,11.13Z" transform="translate(0 -3)"/><path d="M9.42,18.46l.83-3.13,1.07.11-1,3.15Z" transform="translate(0 -3)"/><path d="M12.14,12.9C12.14,10,12.8,9,14.34,9s2.21,1,2.21,3.94-.65,4-2.21,4S12.14,15.82,12.14,12.9Zm3.34.13v-.27c0-2.12-.27-2.85-1.14-2.85s-1.13.73-1.13,2.85V13c0,2.16.27,2.91,1.13,2.91S15.48,15.18,15.48,13Z" transform="translate(0 -3)"/><path d="M17.47,12.9c0-2.91.66-3.94,2.2-3.94s2.21,1,2.21,3.94-.65,4-2.21,4S17.47,15.82,17.47,12.9Zm3.34.13v-.27c0-2.12-.27-2.85-1.14-2.85s-1.13.73-1.13,2.85V13c0,2.16.27,2.91,1.13,2.91S20.81,15.18,20.81,13Z" transform="translate(0 -3)"/><path d="M22.8,12.9C22.8,10,23.46,9,25,9s2.21,1,2.21,3.94-.65,4-2.21,4S22.8,15.82,22.8,12.9Zm3.34.13v-.27c0-2.12-.27-2.85-1.14-2.85s-1.13.73-1.13,2.85V13c0,2.16.27,2.91,1.13,2.91S26.14,15.18,26.14,13Z" transform="translate(0 -3)"/></svg>
