<svg xmlns="http://www.w3.org/2000/svg" viewBox="0 0 525 285.22">
  <defs>
    <style>.a{fill:#ebf000;}.b{fill:#fff;}.c{opacity:0.5;}.d{fill:#444;}.e{fill:none;stroke:#444;stroke-miterlimit:10;stroke-width:2px;}</style>
  </defs>
  <g>
    <rect class="a" width="525" height="250"/>
    <rect class="b" x="47.54" width="2" height="250"/>
    <rect class="b" x="95.09" width="2" height="250"/>
    <rect class="b" x="142.64" width="2" height="250"/>
    <rect class="b" x="190.18" width="2" height="250"/>
    <rect class="b" x="237.73" width="2" height="250"/>
    <rect class="b" x="285.27" width="2" height="250"/>
    <rect class="b" x="332.82" width="2" height="250"/>
    <rect class="b" x="380.36" width="2" height="250"/>
    <rect class="b" x="427.91" width="2" height="250"/>
    <rect class="b" x="475.46" width="2" height="250"/>
    <g class="c">
      <rect class="b" y="241.89" width="525" height="1"/>
      <rect class="b" y="234.77" width="525" height="1"/>
      <rect class="b" y="227.66" width="525" height="1"/>
      <rect class="b" y="220.54" width="525" height="1"/>
      <rect class="b" y="213.43" width="525" height="1"/>
      <rect class="b" y="206.31" width="525" height="1"/>
      <rect class="b" y="199.2" width="525" height="1"/>
      <rect class="b" y="192.09" width="525" height="1"/>
      <rect class="b" y="184.97" width="525" height="1"/>
      <rect class="b" y="177.86" width="525" height="1"/>
      <rect class="b" y="170.74" width="525" height="1"/>
      <rect class="b" y="163.63" width="525" height="1"/>
      <rect class="b" y="156.51" width="525" height="1"/>
      <rect class="b" y="149.4" width="525" height="1"/>
      <rect class="b" y="142.29" width="525" height="1"/>
      <rect class="b" y="135.17" width="525" height="1"/>
      <rect class="b" y="128.06" width="525" height="1"/>
      <rect class="b" y="120.94" width="525" height="1"/>
      <rect class="b" y="113.83" width="525" height="1"/>
      <rect class="b" y="106.71" width="525" height="1"/>
      <rect class="b" y="99.6" width="525" height="1"/>
      <rect class="b" y="92.49" width="525" height="1"/>
      <rect class="b" y="85.37" width="525" height="1"/>
      <rect class="b" y="78.26" width="525" height="1"/>
      <rect class="b" y="7.11" width="525" height="1"/>
      <rect class="b" y="14.23" width="525" height="1"/>
      <rect class="b" y="21.34" width="525" height="1"/>
      <rect class="b" y="28.46" width="525" height="1"/>
      <rect class="b" y="35.57" width="525" height="1"/>
      <rect class="b" y="42.69" width="525" height="1"/>
      <rect class="b" y="49.8" width="525" height="1"/>
      <rect class="b" y="56.91" width="525" height="1"/>
      <rect class="b" y="64.03" width="525" height="1"/>
      <rect class="b" y="71.14" width="525" height="1"/>
    </g>
  </g>
  <g>
    <g>
      <path class="d" d="M44.87,260.8l3.37,2.75a4.71,4.71,0,0,0,2.55,1c.9,0,1.39-.34,1.39-1.11v-.07c0-.72-.39-1.08-1.4-1.2L51,261c1.54.16,2.33.85,2.33,2.4a2.2,2.2,0,0,1-2.46,2.39,5.74,5.74,0,0,1-3.21-1.28L45,262.44h0v3.38H43.9v-5Z"/>
      <path class="d" d="M48.57,267.08c3.48,0,4.71.79,4.71,2.63s-1.23,2.65-4.71,2.65-4.76-.78-4.76-2.65S45.07,267.08,48.57,267.08Zm-.16,4h.32c2.54,0,3.41-.33,3.41-1.37s-.87-1.35-3.41-1.35h-.32c-2.58,0-3.48.32-3.48,1.35S45.84,271.08,48.41,271.08Z"/>
      <path class="d" d="M44.87,273.56l3.37,2.75a4.71,4.71,0,0,0,2.55,1c.9,0,1.39-.34,1.39-1.11v-.07c0-.72-.39-1.08-1.4-1.2l.17-1.17c1.54.16,2.33.85,2.33,2.4a2.2,2.2,0,0,1-2.46,2.39,5.74,5.74,0,0,1-3.21-1.28L45,275.2h0v3.38H43.9v-5Z"/>
      <path class="d" d="M52,282.29l-.67-1.88,1.11,0,.73,2v1.17H43.9v-1.26Z"/>
    </g>
    <g>
      <path class="d" d="M92.42,260.8l3.37,2.75a4.68,4.68,0,0,0,2.55,1c.9,0,1.39-.34,1.39-1.11v-.07c0-.72-.4-1.08-1.4-1.2l.16-1.17c1.55.16,2.34.85,2.34,2.4a2.21,2.21,0,0,1-2.47,2.39,5.71,5.71,0,0,1-3.2-1.28l-2.61-2.07h0v3.38H91.45v-5Z"/>
      <path class="d" d="M96.11,267.08c3.48,0,4.72.79,4.72,2.63s-1.24,2.65-4.72,2.65-4.76-.78-4.76-2.65S92.62,267.08,96.11,267.08Zm-.15,4h.32c2.54,0,3.41-.33,3.41-1.37s-.87-1.35-3.41-1.35H96c-2.59,0-3.48.32-3.48,1.35S93.39,271.08,96,271.08Z"/>
      <path class="d" d="M92.42,273.56l3.37,2.75a4.68,4.68,0,0,0,2.55,1c.9,0,1.39-.34,1.39-1.11v-.07c0-.72-.4-1.08-1.4-1.2l.16-1.17c1.55.16,2.34.85,2.34,2.4a2.21,2.21,0,0,1-2.47,2.39,5.71,5.71,0,0,1-3.2-1.28l-2.61-2.07h0v3.38H91.45v-5Z"/>
      <path class="d" d="M92.42,279.94l3.37,2.75a4.68,4.68,0,0,0,2.55,1c.9,0,1.39-.34,1.39-1.11v-.07c0-.72-.4-1.08-1.4-1.2l.16-1.17c1.55.16,2.34.85,2.34,2.4a2.21,2.21,0,0,1-2.47,2.39,5.71,5.71,0,0,1-3.2-1.28l-2.61-2.07h0V285H91.45v-5Z"/>
    </g>
    <g>
      <path class="d" d="M140,260.8l3.38,2.75a4.68,4.68,0,0,0,2.54,1c.9,0,1.39-.34,1.39-1.11v-.07c0-.72-.39-1.08-1.4-1.2L146,261c1.54.16,2.33.85,2.33,2.4a2.2,2.2,0,0,1-2.46,2.39,5.74,5.74,0,0,1-3.21-1.28l-2.61-2.07h0v3.38H139v-5Z"/>
      <path class="d" d="M143.66,267.08c3.48,0,4.71.79,4.71,2.63s-1.23,2.65-4.71,2.65-4.76-.78-4.76-2.65S140.17,267.08,143.66,267.08Zm-.16,4h.33c2.53,0,3.41-.33,3.41-1.37s-.88-1.35-3.41-1.35h-.33c-2.58,0-3.48.32-3.48,1.35S140.93,271.08,143.5,271.08Z"/>
      <path class="d" d="M140,273.56l3.38,2.75a4.68,4.68,0,0,0,2.54,1c.9,0,1.39-.34,1.39-1.11v-.07c0-.72-.39-1.08-1.4-1.2l.17-1.17c1.54.16,2.33.85,2.33,2.4a2.2,2.2,0,0,1-2.46,2.39,5.74,5.74,0,0,1-3.21-1.28l-2.61-2.07h0v3.38H139v-5Z"/>
      <path class="d" d="M141.24,279.86l.13,1.19c-1,.1-1.4.5-1.4,1.36v.11c0,.79.51,1.24,1.56,1.24h.16c1,0,1.54-.5,1.54-1.38v-.64h1.13v.65c0,.69.39,1.29,1.45,1.29H146c.85,0,1.32-.35,1.32-1.11v-.1c0-.67-.36-1.05-1.22-1.16l.13-1.19a2.42,2.42,0,0,1-.23,4.82,2.21,2.21,0,0,1-2.14-1.21h-.05a2.12,2.12,0,0,1-2.18,1.28c-1.77,0-2.71-.92-2.71-2.57S139.64,280,141.24,279.86Z"/>
    </g>
    <g>
      <path class="d" d="M187.51,260.8l3.37,2.75a4.71,4.71,0,0,0,2.55,1c.9,0,1.39-.34,1.39-1.11v-.07c0-.72-.4-1.08-1.4-1.2l.17-1.17c1.54.16,2.33.85,2.33,2.4a2.2,2.2,0,0,1-2.47,2.39,5.71,5.71,0,0,1-3.2-1.28l-2.61-2.07h0v3.38h-1.08v-5Z"/>
      <path class="d" d="M191.21,267.08c3.48,0,4.71.79,4.71,2.63s-1.23,2.65-4.71,2.65-4.77-.78-4.77-2.65S187.71,267.08,191.21,267.08Zm-.16,4h.32c2.54,0,3.41-.33,3.41-1.37s-.87-1.35-3.41-1.35h-.32c-2.58,0-3.48.32-3.48,1.35S188.48,271.08,191.05,271.08Z"/>
      <path class="d" d="M187.51,273.56l3.37,2.75a4.71,4.71,0,0,0,2.55,1c.9,0,1.39-.34,1.39-1.11v-.07c0-.72-.4-1.08-1.4-1.2l.17-1.17c1.54.16,2.33.85,2.33,2.4a2.2,2.2,0,0,1-2.47,2.39,5.71,5.71,0,0,1-3.2-1.28l-2.61-2.07h0v3.38h-1.08v-5Z"/>
      <path class="d" d="M189.33,285.22h-1.08v-1h-1.71v-1.12h1.71v-3.36h1l6.53,3.37v1.11h-6.47Zm0-2.1h4.26L189.37,281h0Z"/>
    </g>
    <g>
      <path class="d" d="M235.05,260.8l3.38,2.75a4.68,4.68,0,0,0,2.55,1c.89,0,1.38-.34,1.38-1.11v-.07c0-.72-.39-1.08-1.4-1.2l.17-1.17c1.54.16,2.33.85,2.33,2.4a2.2,2.2,0,0,1-2.46,2.39,5.74,5.74,0,0,1-3.21-1.28l-2.6-2.07h0v3.38h-1.07v-5Z"/>
      <path class="d" d="M238.75,267.08c3.48,0,4.71.79,4.71,2.63s-1.23,2.65-4.71,2.65-4.76-.78-4.76-2.65S235.26,267.08,238.75,267.08Zm-.15,4h.32c2.53,0,3.41-.33,3.41-1.37s-.88-1.35-3.41-1.35h-.32c-2.59,0-3.49.32-3.49,1.35S236,271.08,238.6,271.08Z"/>
      <path class="d" d="M235.05,273.56l3.38,2.75a4.68,4.68,0,0,0,2.55,1c.89,0,1.38-.34,1.38-1.11v-.07c0-.72-.39-1.08-1.4-1.2l.17-1.17c1.54.16,2.33.85,2.33,2.4a2.2,2.2,0,0,1-2.46,2.39,5.74,5.74,0,0,1-3.21-1.28l-2.6-2.07h0v3.38h-1.07v-5Z"/>
      <path class="d" d="M236.05,280l.25,1.13c-.89.15-1.26.59-1.26,1.25v.09c0,.72.5,1.2,1.84,1.2h.23c1.26,0,1.74-.41,1.74-1.11a1.54,1.54,0,0,0-.7-1.24l.17-1.05,5,.61v3.83h-1v-2.82l-2.91-.36v0a2.13,2.13,0,0,1,.49,1.35c0,1.25-1,2-2.91,2-2.1,0-3-1-3-2.53A2.14,2.14,0,0,1,236.05,280Z"/>
    </g>
    <g>
      <path class="d" d="M282.6,260.8l3.37,2.75a4.71,4.71,0,0,0,2.55,1c.9,0,1.39-.34,1.39-1.11v-.07c0-.72-.39-1.08-1.4-1.2l.17-1.17c1.54.16,2.33.85,2.33,2.4a2.2,2.2,0,0,1-2.46,2.39,5.74,5.74,0,0,1-3.21-1.28l-2.61-2.07h0v3.38h-1.08v-5Z"/>
      <path class="d" d="M286.3,267.08c3.48,0,4.71.79,4.71,2.63s-1.23,2.65-4.71,2.65-4.76-.78-4.76-2.65S282.8,267.08,286.3,267.08Zm-.16,4h.32c2.54,0,3.41-.33,3.41-1.37s-.87-1.35-3.41-1.35h-.32c-2.58,0-3.48.32-3.48,1.35S283.57,271.08,286.14,271.08Z"/>
      <path class="d" d="M282.6,273.56l3.37,2.75a4.71,4.71,0,0,0,2.55,1c.9,0,1.39-.34,1.39-1.11v-.07c0-.72-.39-1.08-1.4-1.2l.17-1.17c1.54.16,2.33.85,2.33,2.4a2.2,2.2,0,0,1-2.46,2.39,5.74,5.74,0,0,1-3.21-1.28l-2.61-2.07h0v3.38h-1.08v-5Z"/>
      <path class="d" d="M284.69,285.08c-2.2,0-3.15-1.08-3.15-2.57s.93-2.57,2.87-2.57a5.79,5.79,0,0,1,2.53.59c1.21.57,2.84,1.3,3.95,1.86v1.26L287.36,282a1.73,1.73,0,0,1,.22.91C287.58,284.11,286.64,285.08,284.69,285.08Zm0-1.27c1.31,0,1.83-.55,1.83-1.25,0-1-.8-1.37-2.1-1.37s-1.81.58-1.81,1.33.53,1.29,1.87,1.29Z"/>
    </g>
    <g>
      <path class="d" d="M330.15,260.8l3.37,2.75a4.68,4.68,0,0,0,2.55,1c.9,0,1.39-.34,1.39-1.11v-.07c0-.72-.4-1.08-1.4-1.2l.16-1.17c1.55.16,2.34.85,2.34,2.4a2.21,2.21,0,0,1-2.47,2.39,5.71,5.71,0,0,1-3.2-1.28l-2.61-2.07h0v3.38h-1.07v-5Z"/>
      <path class="d" d="M333.84,267.08c3.48,0,4.72.79,4.72,2.63s-1.24,2.65-4.72,2.65-4.76-.78-4.76-2.65S330.35,267.08,333.84,267.08Zm-.15,4H334c2.54,0,3.41-.33,3.41-1.37s-.87-1.35-3.41-1.35h-.32c-2.59,0-3.48.32-3.48,1.35S331.12,271.08,333.69,271.08Z"/>
      <path class="d" d="M330.15,273.56l3.37,2.75a4.68,4.68,0,0,0,2.55,1c.9,0,1.39-.34,1.39-1.11v-.07c0-.72-.4-1.08-1.4-1.2l.16-1.17c1.55.16,2.34.85,2.34,2.4a2.21,2.21,0,0,1-2.47,2.39,5.71,5.71,0,0,1-3.2-1.28l-2.61-2.07h0v3.38h-1.07v-5Z"/>
      <path class="d" d="M337.36,283.5v-3.3h1.08v4.58h-1.07L329.18,282v-1.33Z"/>
    </g>
    <g>
      <path class="d" d="M377.69,260.8l3.38,2.75a4.68,4.68,0,0,0,2.54,1c.9,0,1.39-.34,1.39-1.11v-.07c0-.72-.39-1.08-1.4-1.2l.17-1.17c1.54.16,2.33.85,2.33,2.4a2.2,2.2,0,0,1-2.46,2.39,5.74,5.74,0,0,1-3.21-1.28l-2.61-2.07h0v3.38h-1.08v-5Z"/>
      <path class="d" d="M381.39,267.08c3.48,0,4.71.79,4.71,2.63s-1.23,2.65-4.71,2.65-4.76-.78-4.76-2.65S377.9,267.08,381.39,267.08Zm-.16,4h.33c2.53,0,3.41-.33,3.41-1.37s-.88-1.35-3.41-1.35h-.33c-2.58,0-3.48.32-3.48,1.35S378.66,271.08,381.23,271.08Z"/>
      <path class="d" d="M377.69,273.56l3.38,2.75a4.68,4.68,0,0,0,2.54,1c.9,0,1.39-.34,1.39-1.11v-.07c0-.72-.39-1.08-1.4-1.2l.17-1.17c1.54.16,2.33.85,2.33,2.4a2.2,2.2,0,0,1-2.46,2.39,5.74,5.74,0,0,1-3.21-1.28l-2.61-2.07h0v3.38h-1.08v-5Z"/>
      <path class="d" d="M379.2,279.88a2.24,2.24,0,0,1,2.3,1.35h0a2.1,2.1,0,0,1,2.09-1.15,2.4,2.4,0,1,1,0,4.8,2.11,2.11,0,0,1-2.1-1.16h0a2.24,2.24,0,0,1-2.3,1.36,2.6,2.6,0,0,1,0-5.2Zm0,3.93h.3c1,0,1.49-.5,1.49-1.34s-.53-1.34-1.49-1.34h-.28c-1.11,0-1.55.49-1.55,1.34S378.07,283.81,379.16,283.81Zm4.35-.16h.14c1,0,1.46-.38,1.46-1.18s-.49-1.17-1.47-1.17h-.15c-1,0-1.43.42-1.43,1.17S382.5,283.65,383.51,283.65Z"/>
    </g>
    <g>
      <path class="d" d="M425.24,260.8l3.37,2.75a4.71,4.71,0,0,0,2.55,1c.9,0,1.39-.34,1.39-1.11v-.07c0-.72-.4-1.08-1.4-1.2l.17-1.17c1.54.16,2.33.85,2.33,2.4a2.21,2.21,0,0,1-2.47,2.39,5.71,5.71,0,0,1-3.2-1.28l-2.61-2.07h0v3.38h-1.08v-5Z"/>
      <path class="d" d="M428.93,267.08c3.49,0,4.72.79,4.72,2.63s-1.23,2.65-4.72,2.65-4.76-.78-4.76-2.65S425.44,267.08,428.93,267.08Zm-.15,4h.32c2.54,0,3.41-.33,3.41-1.37s-.87-1.35-3.41-1.35h-.32c-2.59,0-3.48.32-3.48,1.35S426.21,271.08,428.78,271.08Z"/>
      <path class="d" d="M425.24,273.56l3.37,2.75a4.71,4.71,0,0,0,2.55,1c.9,0,1.39-.34,1.39-1.11v-.07c0-.72-.4-1.08-1.4-1.2l.17-1.17c1.54.16,2.33.85,2.33,2.4a2.21,2.21,0,0,1-2.47,2.39,5.71,5.71,0,0,1-3.2-1.28l-2.61-2.07h0v3.38h-1.08v-5Z"/>
      <path class="d" d="M430.75,285a7,7,0,0,1-2.5-.48c-1.11-.5-2.76-1.25-4-1.86V281.4l3.53,1.68a1.81,1.81,0,0,1-.17-.77c0-1.25.89-2.35,2.93-2.35s3.09,1.08,3.09,2.57S432.58,285,430.75,285Zm-2.05-2.47c0,.92.75,1.29,2,1.29s1.83-.5,1.83-1.31-.61-1.3-1.79-1.32h-.25C429.2,281.24,428.7,281.85,428.7,282.56Z"/>
    </g>
    <g>
      <path class="d" d="M472.78,260.8l3.38,2.75a4.68,4.68,0,0,0,2.55,1c.89,0,1.38-.34,1.38-1.11v-.07c0-.72-.39-1.08-1.4-1.2l.17-1.17c1.54.16,2.33.85,2.33,2.4a2.2,2.2,0,0,1-2.46,2.39,5.74,5.74,0,0,1-3.21-1.28l-2.6-2.07h0v3.38h-1.07v-5Z"/>
      <path class="d" d="M476.48,267.08c3.48,0,4.71.79,4.71,2.63s-1.23,2.65-4.71,2.65-4.76-.78-4.76-2.65S473,267.08,476.48,267.08Zm-.16,4h.33c2.53,0,3.41-.33,3.41-1.37s-.88-1.35-3.41-1.35h-.33c-2.58,0-3.48.32-3.48,1.35S473.75,271.08,476.32,271.08Z"/>
      <path class="d" d="M474.06,273.48l.14,1.19c-1,.1-1.4.5-1.4,1.36v.11c0,.79.5,1.25,1.55,1.25h.16c1,0,1.54-.51,1.54-1.39v-.64h1.14V276c0,.69.38,1.29,1.44,1.29h.17c.85,0,1.32-.35,1.32-1.11v-.1c0-.67-.36-1-1.22-1.16l.13-1.19a2.42,2.42,0,0,1-.23,4.82,2.21,2.21,0,0,1-2.14-1.21h-.05a2.12,2.12,0,0,1-2.17,1.28c-1.78,0-2.72-.92-2.72-2.57S472.46,273.58,474.06,273.48Z"/>
      <path class="d" d="M476.48,279.84c3.48,0,4.71.79,4.71,2.63s-1.23,2.65-4.71,2.65-4.76-.78-4.76-2.65S473,279.84,476.48,279.84Zm-.16,4h.33c2.53,0,3.41-.33,3.41-1.37s-.88-1.35-3.41-1.35h-.33c-2.58,0-3.48.32-3.48,1.35S473.75,283.84,476.32,283.84Z"/>
    </g>
    <g>
      <path class="d" d="M33.17,32h-5v3.5H26.61V32H20.55V30.66h2.16V26.35h3.9V23.92h-2.7a14.4,14.4,0,0,1-2,3.12l-1.22-.95a13.8,13.8,0,0,0,2.82-5.49l1.6.29c-.17.58-.38,1.12-.59,1.65h8.29v1.38H28.16v2.43h3.75v1.36H28.16v2.95h5Zm-6.56-1.36V27.71H24.24v2.95Z"/>
      <path class="d" d="M36.72,26.35c0,3.19-.25,6.53-1.47,9L34,34.58c1-2.29,1.2-5.28,1.2-8.23V22h4.85V20.6h1.54V22h4.94v1.33H36.72v1.48h1.91v-1.2h1.44v1.2h2.25v-1.2H43.8v1.2h2.67v1.28H43.8v2.51H38.63V26.13H36.72Zm9.08,9.16A12.84,12.84,0,0,1,41.3,34a12.86,12.86,0,0,1-4.4,1.51l-.72-1.17a12.67,12.67,0,0,0,3.9-1.19,10.41,10.41,0,0,1-2.16-2.43h-1v-1.3h7l1,.74a9.17,9.17,0,0,1-2.29,3,12,12,0,0,0,4.06,1Zm-4.53-3.13a6.65,6.65,0,0,0,1.5-1.66H39.62A7.43,7.43,0,0,0,41.27,32.38Zm-1.2-6.25v1.23h2.25V26.13Z"/>
      <path class="d" d="M57.77,32.74,58,34.21a23.73,23.73,0,0,1-4.29.37c-3.41,0-5.06-1-5.06-2.9A6.14,6.14,0,0,1,50.18,28l1.15.8a4.74,4.74,0,0,0-1.14,2.66c0,1.09.77,1.7,3.54,1.7A22.57,22.57,0,0,0,57.77,32.74Zm-3.4-8.58H49.78v-1.4h6.45L56.92,24a31.33,31.33,0,0,0-3.8,3.07l-1-1C52.85,25.42,53.73,24.69,54.37,24.16Zm3-3a10.59,10.59,0,0,1,1.09,2.55l-1,.4a9.6,9.6,0,0,0-1-2.56ZM60,22.75l-1,.4a9.67,9.67,0,0,0-1-2.51l.85-.42A10.85,10.85,0,0,1,60,22.75Z"/>
      <path class="d" d="M71.06,34.47a31.57,31.57,0,0,1-4,.25c-3.6,0-5.26-1-5.26-3.22,0-1.56,1.13-3,3.08-4.27-.67-1.44-.92-3.36-1-6.26h1.65a18.07,18.07,0,0,0,.7,5.46,37.47,37.47,0,0,1,3.92-1.81l.69,1.46c-4.7,1.66-7.49,3.42-7.49,5.28,0,1.3.91,1.87,3.73,1.87a25.33,25.33,0,0,0,3.92-.29Z"/>
      <path class="d" d="M84.48,28.08a6.15,6.15,0,0,1-5.08,6.51l-.73-1.26c3-.75,4.17-2.55,4.17-5.2,0-2.12-1-3.94-3-4.29-.58,6-1.86,9.55-3.82,9.55-1.41,0-2.65-1.71-2.65-4.29,0-3.68,2.34-6.69,5.81-6.69C82.9,22.41,84.48,25.07,84.48,28.08Zm-6.11-4.23C76.16,24.3,75,26.53,75,29.07c0,1.67.56,2.71,1.07,2.71C76.79,31.78,77.89,29.47,78.37,23.85Z"/>
      <path class="d" d="M86.72,29V27.45c.06-3.52,1.51-5.53,4.42-5.53,2.09,0,3.47.89,3.94,3.34l-1.6.37c-.36-1.55-1.08-2.11-2.25-2.11H91c-1.66,0-2.56,1.23-2.56,3.89V29.1c0,2.72.88,3.92,2.53,3.92h.22c1.19,0,1.89-.54,2.25-2.14l1.61.37a3.61,3.61,0,0,1-3.94,3.34C88.21,34.59,86.78,32.82,86.72,29Z"/>
      <path class="d" d="M96.7,29.1q0-.86,0-1.74c.07-3.76,1.45-5.44,4.34-5.44s4.26,1.68,4.32,5.44V29.1c-.06,3.8-1.44,5.49-4.32,5.49S96.77,32.9,96.7,29.1Zm6.87.2V27.18c0-2.54-.72-3.73-2.53-3.73s-2.54,1.19-2.54,3.73V29.3c0,2.54.75,3.77,2.54,3.77S103.57,31.84,103.57,29.3Z"/>
      <path class="d" d="M107.17,33.17l3.68-4.52a6.23,6.23,0,0,0,1.34-3.4c0-1.2-.46-1.86-1.48-1.86h-.1c-1,0-1.44.53-1.6,1.87L107.44,25c.21-2.07,1.14-3.12,3.22-3.12s3.18,1.24,3.18,3.29a7.61,7.61,0,0,1-1.71,4.29L109.36,33l0,0h4.53v1.45h-6.74Z"/>
      <path class="d" d="M118.18,29.33v4.35c0,1.28-.45,1.79-1.51,1.79a9,9,0,0,1-1.13-.09l-.2-1.27c.34,0,.64,0,.87,0,.38,0,.48-.1.48-.42V29.89l-1.06.35-.48-1.3,1.54-.43V25h-1.36V23.71h1.36V20.6h1.49v3.11h.89V25h-.89v3l.93-.32v1.25Zm3.23-8.68h1.49v8.29c0,3.12-.66,5.06-3,6.55l-1-1a4.54,4.54,0,0,0,2.31-3.17c-.64.34-1.27.66-1.84.91L118.77,31c.78-.26,1.71-.59,2.62-1,0-.34,0-.72,0-1.1V28h-2.08V26.7h2.08V24.61h-2.08V23.29h2.08ZM128,31.54H125.4v4h-1.49V20.65h1.49v2.64h2.48v1.32H125.4V26.7h2.27V28H125.4v2.22H128Z"/>
      <path class="d" d="M140.58,28.85v6.64H139V34.31h-7.55v1.2H129.9V28.86h1.56v4.07h2.94V27.71h-4V22.38h1.52v3.94h2.51V20.67H136v5.65h2.56V22.38h1.55v5.33H136v5.22h3V28.85Z"/>
      <path class="d" d="M143.55,25.18a15.84,15.84,0,0,0-.94-3.54l1.2-.51A15.9,15.9,0,0,1,145,24.59Zm5.72,8.56c0,1.24-.44,1.72-1.52,1.72a9.82,9.82,0,0,1-1.4-.1l-.19-1.18c.43,0,.83,0,1.14,0s.53-.08.53-.41V32.1H144.5v3.42h-1.44v-10h2.33V20.62h1.46v4.87h2.42Zm-4.77-7v1.39h3.33V26.77Zm3.33,4.06V29.41H144.5v1.42Zm.54-9.76,1.41.54c-.34,1.06-.75,2.2-1.3,3.51l-1.18-.5A35.27,35.27,0,0,0,148.37,21.07Zm3.44,10.47h-1.44v-9h1.44Zm2.8-10.81V33.5c0,1.43-.49,2-1.76,2a14.11,14.11,0,0,1-1.65-.11l-.2-1.27c.56,0,1,0,1.42,0,.61,0,.72-.13.72-.61V20.73Z"/>
      <path class="d" d="M156.1,26l.81-1A11.37,11.37,0,0,1,159.1,27l-1,1.28A12,12,0,0,0,156.1,26ZM159,30.11a41.39,41.39,0,0,1-1.46,5l-1.36-.87a31.18,31.18,0,0,0,1.68-5Zm-2.5-8.39.87-1a11.07,11.07,0,0,1,2.09,2.08l-1.08,1.22A11.47,11.47,0,0,0,156.46,21.72ZM169,32.54c-.23,2.26-.87,3-1.7,3-.65,0-1.17-.86-1.6-2.56a12.29,12.29,0,0,1-2.43,2.51l-.85-1a10.89,10.89,0,0,0,2.9-3.33c-.29-1.79-.5-4.09-.66-6.91h-3.78v3.06c0,3-.3,6-1.53,8.26l-1.09-.76a17.91,17.91,0,0,0,1.2-7.5V22.94h5.14l-.08-2.32H166l.08,2.32h1.34a8.76,8.76,0,0,0-1.26-1.49l.83-.83a8.29,8.29,0,0,1,1.59,1.49l-.84.83h1v1.25h-2.61c.08,1.73.17,3.22.29,4.48a18.84,18.84,0,0,0,.73-3.07l1.38.4a18.66,18.66,0,0,1-1.83,5.33c.26,1.79.53,2.65.74,2.65s.32-.24.5-2.06Zm-4.48-6.09h-3.33V25.29h3.33Zm-2,6.48H161.3V27.45h3.25v4.68h-2Zm0-4.32V31h.8V28.61Z"/>
      <path class="d" d="M182.34,34.13v1.14H169.71V34.13h5.51v-.58h-4.37V32.42h4.37v-.55h-3.89V27.36h9.41v4.51h-4v.55h4.53v1.13h-4.53v.58Zm-.11-7.3H169.85V25.69h12.38Zm-1.6-1.65h-9.19V21h9.19Zm-7.85,3.89h2.44v-.56h-2.44Zm2.44,1.65v-.58h-2.44v.58Zm3.9-8.69h-6.21v.54h6.21Zm0,1.54h-6.21v.54h6.21Zm.13,4.94h-2.53v.56h2.53Zm0,1.63h-2.53v.58h2.53Z"/>
      <path class="d" d="M195,28.08A6.15,6.15,0,0,1,190,34.59l-.72-1.26c3-.75,4.17-2.55,4.17-5.2,0-2.12-1-3.94-3-4.29-.58,6-1.86,9.55-3.83,9.55-1.4,0-2.64-1.71-2.64-4.29,0-3.68,2.34-6.69,5.81-6.69C193.46,22.41,195,25.07,195,28.08Zm-6.11-4.23c-2.21.45-3.41,2.68-3.41,5.22,0,1.67.56,2.71,1.07,2.71C187.34,31.78,188.45,29.47,188.93,23.85Z"/>
      <path class="d" d="M201,28.14a13.7,13.7,0,0,1-2.35,5.32l-1.28-.88a11.78,11.78,0,0,0,2.22-4.89Zm2.88-1.89v6.53c0,1.49-.56,2.13-1.84,2.13a10,10,0,0,1-2-.2V33.3a9.93,9.93,0,0,0,1.53.12c.51,0,.68-.2.68-.7V26.25h-4.6V24.86h4.6V21.07h1.61v3.79h4.5v1.39Zm2.45,1.24a24.17,24.17,0,0,1,2.43,5.1l-1.49.75a20.67,20.67,0,0,0-2.17-5.2Zm-.45-5.21a1.57,1.57,0,1,1,1.57,1.57A1.56,1.56,0,0,1,205.84,22.28Zm.66,0a.93.93,0,0,0,.93.93.91.91,0,0,0,.89-.93.89.89,0,0,0-.89-.89A.91.91,0,0,0,206.5,22.28Z"/>
      <path class="d" d="M221.7,27.57h-4.23c-.08,3.29-.7,5.76-4.16,7.44l-1-1.25c2.94-1.38,3.42-3.28,3.49-6.19H210.7V26.16h11Zm-1.52-4h-8V22.14h8Z"/>
      <path class="d" d="M223.76,24.09l1-1.17a22.59,22.59,0,0,1,3.94,2.87l-1.08,1.31A16.9,16.9,0,0,0,223.76,24.09Zm10.34,2.36a12,12,0,0,1-9.24,8.08L224.21,33c4.13-.62,7.31-3.47,8.74-7.81Z"/>
      <path class="d" d="M239.6,28.94a15.67,15.67,0,0,0-3.73-2.38l.75-1.19a20.39,20.39,0,0,1,3.89,2.23Zm7-2.4a12.63,12.63,0,0,1-9,8.13l-.72-1.47a11.49,11.49,0,0,0,8.61-7.92Zm-5.57-1a15.5,15.5,0,0,0-3.7-2.38l.75-1.17A18.85,18.85,0,0,1,242,24.24Z"/>
      <path class="d" d="M257.38,27.12a12.69,12.69,0,0,1-2.24,4.93l-1.2-.82a8,8,0,0,0,1.66-3.34l-3.43.7,1.43,6.23-1.46.32-1.42-6.24-2.4.49L248,28.06l2.42-.48-.7-3.07,1.45-.32.71,3.09,4.53-.91Z"/>
      <path class="d" d="M261.93,22.12h1.62v4.26c0,3.57-.61,6.1-3.57,8.26l-1.07-1.07c2.64-1.87,3-4.16,3-7.19Zm9.51,7.7a10.57,10.57,0,0,1-4.66,4.37l-1.17-.78V22.09h1.62v10a8.31,8.31,0,0,0,3.49-3.73Z"/>
    </g>
  </g>
  <g>
    <circle class="d p1" cx="48.54" cy="250" r="5"/>
    <circle class="d p2" cx="238.73" cy="212.05" r="5"/>
    <circle class="d p3" cx="476.46" cy="28.61" r="5"/>
    <path class="e" d="M48.54,250S185,239.08,238.73,212.05,476.46,28.61,476.46,28.61"/>
    <g class="p1">
      <text class="text" id="current-value" x="43" y="220" font-size="21">823,565g</text>
    </g>
    <g class="p2">
      <text class="text" x="233" y="181" font-size="21">10,733,031g</text>
    </g>
    <g class="p3">
      <text class="text" x="378" y="68" font-size="21">61,948,268g</text>
    </g>
  </g>
</svg>
