<svg xmlns="http://www.w3.org/2000/svg" viewBox="0 0 498 288">
  <rect class="bar" y="210" width="6" height="78"/>
  <rect class="bar" x="17" y="24" width="6" height="264"/>
  <rect class="bar" x="33" y="37" width="6" height="251"/>
  <rect class="bar" x="49" y="42" width="6" height="246"/>
  <rect class="bar" x="65" y="42" width="6" height="246"/>
  <rect class="bar" x="82" y="45" width="6" height="243"/>
  <rect class="bar" x="98" y="194" width="6" height="94"/>
  <rect class="bar" x="115" y="219" width="6" height="69"/>
  <rect class="bar" x="131" y="201" width="6" height="87"/>
  <rect class="bar" x="148" y="68" width="6" height="220"/>
  <rect class="bar" x="164" y="73" width="6" height="215"/>
  <rect class="bar" x="180" y="96" width="6" height="192"/>
  <rect class="bar" x="197" y="105" width="6" height="183"/>
  <rect class="bar" x="213" y="207" width="6" height="81"/>
  <rect class="bar" x="230" y="219" width="6" height="69"/>
  <rect class="bar" x="246" y="219" width="6" height="69"/>
  <rect class="bar" x="262" y="68" width="6" height="220"/>
  <rect class="bar" x="279" y="55" width="6" height="233"/>
  <rect class="bar" x="295" y="53" width="6" height="235"/>
  <rect class="bar" x="312" y="52" width="6" height="236"/>
  <rect class="bar" x="328" y="196" width="6" height="92"/>
  <rect class="bar" x="344" y="207" width="6" height="81"/>
  <rect class="bar" x="361" y="53" width="6" height="235"/>
  <rect class="bar" x="377" y="53" width="6" height="235"/>
  <rect class="bar" x="393" y="57" width="6" height="231"/>
  <rect class="bar" x="409" y="53" width="6" height="235"/>
  <rect class="bar" x="426" y="51" width="6" height="237"/>
  <rect class="bar" x="443" y="194" width="6" height="94"/>
  <rect class="bar" x="459" y="211" width="6" height="77"/>
  <rect class="bar" x="475" y="44" width="6" height="244"/>
  <rect class="bar" x="491" y="52" width="6" height="236"/>
  <polyline class="line" points="3 204 20 3 36 17 52 23 69 23 85 24 101 188 118 213 134 194 151 48 167 55 183.5 78.5 200 93 216 201 233 207 249 48 265 33 282 41 298 39 315 33 331 188 347 201 364 33 380 33 396 41 413 39 429 31 446 188 462 207 478 24 495 34"/>
  <path class="circle" d="M19.5,216a3,3,0,1,1-3-3A3,3,0,0,1,19.5,216Z" transform="translate(-13.5 -12)"/>
  <path class="circle" d="M36.5,15a3,3,0,1,1-3-3A3,3,0,0,1,36.5,15Z" transform="translate(-13.5 -12)"/>
  <path class="circle" d="M52.5,29a3,3,0,1,1-3-3A3,3,0,0,1,52.5,29Z" transform="translate(-13.5 -12)"/>
  <path class="circle" d="M68.5,35a3,3,0,1,1-3-3A3,3,0,0,1,68.5,35Z" transform="translate(-13.5 -12)"/>
  <path class="circle" d="M85.5,35a3,3,0,1,1-3-3A3,3,0,0,1,85.5,35Z" transform="translate(-13.5 -12)"/>
  <path class="circle" d="M101.5,36a3,3,0,1,1-3-3A3,3,0,0,1,101.5,36Z" transform="translate(-13.5 -12)"/>
  <path class="circle" d="M117.5,200a3,3,0,1,1-3-3A3,3,0,0,1,117.5,200Z" transform="translate(-13.5 -12)"/>
  <path class="circle" d="M134.5,225a3,3,0,1,1-3-3A3,3,0,0,1,134.5,225Z" transform="translate(-13.5 -12)"/>
  <path class="circle" d="M150.5,206a3,3,0,1,1-3-3A3,3,0,0,1,150.5,206Z" transform="translate(-13.5 -12)"/>
  <path class="circle" d="M167.5,60a3,3,0,1,1-3-3A3,3,0,0,1,167.5,60Z" transform="translate(-13.5 -12)"/>
  <path class="circle" d="M183.5,67a3,3,0,1,1-3-3A3,3,0,0,1,183.5,67Z" transform="translate(-13.5 -12)"/>
  <path class="circle" d="M200.5,90a3,3,0,1,1-3-3A3,3,0,0,1,200.5,90Z" transform="translate(-13.5 -12)"/>
  <path class="circle" d="M216.5,105a3,3,0,1,1-3-3A3,3,0,0,1,216.5,105Z" transform="translate(-13.5 -12)"/>
  <path class="circle" d="M232.5,213a3,3,0,1,1-3-3A3,3,0,0,1,232.5,213Z" transform="translate(-13.5 -12)"/>
  <path class="circle" d="M249.5,219a3,3,0,1,1-3-3A3,3,0,0,1,249.5,219Z" transform="translate(-13.5 -12)"/>
  <path class="circle" d="M265.5,60a3,3,0,1,1-3-3A3,3,0,0,1,265.5,60Z" transform="translate(-13.5 -12)"/>
  <path class="circle" d="M281.5,45a3,3,0,1,1-3-3A3,3,0,0,1,281.5,45Z" transform="translate(-13.5 -12)"/>
  <path class="circle" d="M298.5,53a3,3,0,1,1-3-3A3,3,0,0,1,298.5,53Z" transform="translate(-13.5 -12)"/>
  <path class="circle" d="M314.5,51a3,3,0,1,1-3-3A3,3,0,0,1,314.5,51Z" transform="translate(-13.5 -12)"/>
  <path class="circle" d="M331.5,45a3,3,0,1,1-3-3A3,3,0,0,1,331.5,45Z" transform="translate(-13.5 -12)"/>
  <path class="circle" d="M347.5,200a3,3,0,1,1-3-3A3,3,0,0,1,347.5,200Z" transform="translate(-13.5 -12)"/>
  <path class="circle" d="M363.5,213a3,3,0,1,1-3-3A3,3,0,0,1,363.5,213Z" transform="translate(-13.5 -12)"/>
  <path class="circle" d="M380.5,45a3,3,0,1,1-3-3A3,3,0,0,1,380.5,45Z" transform="translate(-13.5 -12)"/>
  <path class="circle" d="M396.5,45a3,3,0,1,1-3-3A3,3,0,0,1,396.5,45Z" transform="translate(-13.5 -12)"/>
  <path class="circle" d="M412.5,53a3,3,0,1,1-3-3A3,3,0,0,1,412.5,53Z" transform="translate(-13.5 -12)"/>
  <path class="circle" d="M429.5,51a3,3,0,1,1-3-3A3,3,0,0,1,429.5,51Z" transform="translate(-13.5 -12)"/>
  <path class="circle" d="M445.5,43a3,3,0,1,1-3-3A3,3,0,0,1,445.5,43Z" transform="translate(-13.5 -12)"/>
  <path class="circle" d="M462.5,200a3,3,0,1,1-3-3A3,3,0,0,1,462.5,200Z" transform="translate(-13.5 -12)"/>
  <path class="circle" d="M478.5,219a3,3,0,1,1-3-3A3,3,0,0,1,478.5,219Z" transform="translate(-13.5 -12)"/>
  <path class="circle" d="M494.5,36a3,3,0,1,1-3-3A3,3,0,0,1,494.5,36Z" transform="translate(-13.5 -12)"/>
  <path class="circle" d="M511.5,46a3,3,0,1,1-3-3A3,3,0,0,1,511.5,46Z" transform="translate(-13.5 -12)"/>
</svg>
