<svg xmlns="http://www.w3.org/2000/svg" viewBox="0 0 557.23 212.43"><defs><style>.a{fill:#00bebe;}.b{fill:#463c64;}.c{fill:#ebf000;}.d{fill:#ef5285;}</style></defs><rect class="a" x="511.02" y="7" width="43" height="148"/><rect class="a" x="191.02" y="7.06" width="43" height="148"/><rect class="b" x="310.02" y="7.06" width="43" height="148"/><circle class="c" cx="272.02" cy="36.01" r="31.95"/><polygon class="b" points="146.54 96 91.62 0 36.69 96 146.54 96"/><polygon class="d" points="159.13 118 24.1 118 3.21 154.5 180.02 154.5 159.13 118"/><path class="d" d="M1147.87,537.25a32.5,32.5,0,1,1,0-45.94L1179,460.19a76.5,76.5,0,1,0,0,108.19Z" transform="translate(-681.38 -433.78)"/><path d="M693.06,610.29h4.13l11.56,26.83h-5.46l-2.5-6.14H689.15l-2.42,6.14h-5.35Zm6.06,16.6L695,616l-4.21,10.92Z" transform="translate(-681.38 -433.78)"/><path d="M712.19,618.93h4.36v3h.08a6.52,6.52,0,0,1,2.12-2.57,5.27,5.27,0,0,1,3.18-1l.57,0a2,2,0,0,1,.53.09v4.17c-.3-.07-.56-.12-.77-.15s-.43,0-.63,0a4.8,4.8,0,0,0-2.5.57,4.67,4.67,0,0,0-1.48,1.37,5,5,0,0,0-.72,1.63,6,6,0,0,0-.19,1.32v9.74h-4.55Z" transform="translate(-681.38 -433.78)"/><path d="M743.69,628.25v.61c0,.2,0,.4,0,.61H729.82a4.51,4.51,0,0,0,1.66,3.2,6,6,0,0,0,1.63.93,5.55,5.55,0,0,0,1.9.34,6,6,0,0,0,2.88-.63,5.32,5.32,0,0,0,1.93-1.72l3,2.42a9.08,9.08,0,0,1-7.8,3.64,11.18,11.18,0,0,1-3.91-.66,9.33,9.33,0,0,1-3.09-1.88,8.37,8.37,0,0,1-2-3,10.33,10.33,0,0,1-.74-4,10.51,10.51,0,0,1,.74-4,8.91,8.91,0,0,1,5.08-5,10.32,10.32,0,0,1,3.81-.7,9.51,9.51,0,0,1,3.5.63,7.62,7.62,0,0,1,2.79,1.85A8.74,8.74,0,0,1,743,624,12.49,12.49,0,0,1,743.69,628.25Zm-4.55-2a5.45,5.45,0,0,0-.25-1.67,3.76,3.76,0,0,0-.77-1.4,3.83,3.83,0,0,0-1.35-1,4.68,4.68,0,0,0-1.91-.36,5.12,5.12,0,0,0-3.47,1.23,4.48,4.48,0,0,0-1.57,3.17Z" transform="translate(-681.38 -433.78)"/><path d="M760.17,634.81h-.11a5.12,5.12,0,0,1-2.2,2,7.43,7.43,0,0,1-3.45.78,9.91,9.91,0,0,1-2.29-.29,6.84,6.84,0,0,1-2.2-.94,5.71,5.71,0,0,1-1.67-1.75,5,5,0,0,1-.66-2.67,4.54,4.54,0,0,1,1.16-3.26,7.46,7.46,0,0,1,3-1.86,16.78,16.78,0,0,1,4-.85c1.48-.14,2.92-.21,4.34-.21v-.45a2.79,2.79,0,0,0-1.24-2.52,5.22,5.22,0,0,0-2.93-.82,6.69,6.69,0,0,0-2.77.61,7.44,7.44,0,0,0-2.2,1.48l-2.35-2.77a10.31,10.31,0,0,1,3.58-2.16,12.29,12.29,0,0,1,4.12-.72,10.15,10.15,0,0,1,4,.68,6.64,6.64,0,0,1,2.49,1.78,6.54,6.54,0,0,1,1.27,2.47,10.67,10.67,0,0,1,.36,2.73v11.06h-4.25Zm-.07-6h-1c-.73,0-1.5,0-2.31.1a10,10,0,0,0-2.23.41,4.8,4.8,0,0,0-1.71.91,2,2,0,0,0-.68,1.61,1.93,1.93,0,0,0,.28,1.08,2.28,2.28,0,0,0,.74.71,3.35,3.35,0,0,0,1,.37,5.52,5.52,0,0,0,1.14.12,4.75,4.75,0,0,0,3.56-1.25,4.7,4.7,0,0,0,1.22-3.41Z" transform="translate(-681.38 -433.78)"/><path d="M781.47,610.29h7.47l7,19.06H796l6.9-19.06h7.5v26.83h-4.73V615.56h-.08l-8.15,21.56h-3.33l-8-21.56H786v21.56h-4.55Z" transform="translate(-681.38 -433.78)"/><path d="M828.42,634.81h-.11a5.06,5.06,0,0,1-2.2,2,7.43,7.43,0,0,1-3.45.78,9.91,9.91,0,0,1-2.29-.29,6.84,6.84,0,0,1-2.2-.94,5.56,5.56,0,0,1-1.66-1.75,5,5,0,0,1-.67-2.67,4.54,4.54,0,0,1,1.16-3.26,7.46,7.46,0,0,1,3-1.86,16.89,16.89,0,0,1,4-.85c1.48-.14,2.92-.21,4.34-.21v-.45a2.8,2.8,0,0,0-1.23-2.52,5.25,5.25,0,0,0-2.94-.82,6.69,6.69,0,0,0-2.77.61,7.58,7.58,0,0,0-2.2,1.48l-2.34-2.77a10.13,10.13,0,0,1,3.58-2.16,12.19,12.19,0,0,1,4.11-.72,10.2,10.2,0,0,1,4,.68,6.68,6.68,0,0,1,2.48,1.78,6.4,6.4,0,0,1,1.27,2.47,10.67,10.67,0,0,1,.36,2.73v11.06h-4.25Zm-.07-6h-1c-.73,0-1.5,0-2.31.1a10,10,0,0,0-2.23.41,4.88,4.88,0,0,0-1.71.91,2,2,0,0,0-.68,1.61,1.93,1.93,0,0,0,.28,1.08,2.28,2.28,0,0,0,.74.71,3.41,3.41,0,0,0,1,.37,5.43,5.43,0,0,0,1.13.12,4.28,4.28,0,0,0,4.78-4.66Z" transform="translate(-681.38 -433.78)"/><path d="M839,618.93h4.32v2.92h.07a6,6,0,0,1,2.11-2.41,6.06,6.06,0,0,1,3.54-1,6.8,6.8,0,0,1,3.05.63,5.86,5.86,0,0,1,2.08,1.64,6.63,6.63,0,0,1,1.2,2.35,10.05,10.05,0,0,1,.38,2.73v11.37H851.2V627a14.17,14.17,0,0,0-.11-1.67,4.45,4.45,0,0,0-.5-1.57,3.19,3.19,0,0,0-1-1.15,3,3,0,0,0-1.76-.46,3.92,3.92,0,0,0-1.9.44,4,4,0,0,0-1.3,1.11,5.07,5.07,0,0,0-.78,1.58,6.14,6.14,0,0,0-.27,1.8v10H839Z" transform="translate(-681.38 -433.78)"/><path d="M873.37,634.81h-.12a5,5,0,0,1-2.19,2,7.43,7.43,0,0,1-3.45.78,9.84,9.84,0,0,1-2.29-.29,6.84,6.84,0,0,1-2.2-.94,5.59,5.59,0,0,1-1.67-1.75,5,5,0,0,1-.66-2.67,4.54,4.54,0,0,1,1.15-3.26,7.43,7.43,0,0,1,3-1.86,16.8,16.8,0,0,1,4-.85c1.48-.14,2.93-.21,4.34-.21v-.45a2.8,2.8,0,0,0-1.23-2.52,5.23,5.23,0,0,0-2.94-.82,6.61,6.61,0,0,0-2.76.61,7.32,7.32,0,0,0-2.2,1.48l-2.35-2.77a10.31,10.31,0,0,1,3.58-2.16,12.19,12.19,0,0,1,4.11-.72,10.2,10.2,0,0,1,4,.68,6.52,6.52,0,0,1,2.48,1.78,6.4,6.4,0,0,1,1.27,2.47,10.67,10.67,0,0,1,.36,2.73v11.06h-4.24Zm-.08-6h-1c-.73,0-1.5,0-2.31.1a10.13,10.13,0,0,0-2.24.41,4.83,4.83,0,0,0-1.7.91,2,2,0,0,0-.69,1.61,1.93,1.93,0,0,0,.29,1.08,2.19,2.19,0,0,0,.74.71,3.26,3.26,0,0,0,1,.37,5.52,5.52,0,0,0,1.14.12,4.76,4.76,0,0,0,3.56-1.25,4.69,4.69,0,0,0,1.21-3.41Z" transform="translate(-681.38 -433.78)"/><path d="M902.43,618.93v16.56a15.36,15.36,0,0,1-.6,4.45,8.64,8.64,0,0,1-1.88,3.38,8.46,8.46,0,0,1-3.2,2.14,12.68,12.68,0,0,1-4.59.76,16.23,16.23,0,0,1-2.33-.19,16.68,16.68,0,0,1-2.42-.57,14,14,0,0,1-2.29-1,10.81,10.81,0,0,1-2-1.29l2.61-3.52a9.36,9.36,0,0,0,3,1.91,9.17,9.17,0,0,0,3.38.67,6.93,6.93,0,0,0,2.74-.48,4.49,4.49,0,0,0,1.79-1.31,5.19,5.19,0,0,0,.94-2,10.36,10.36,0,0,0,.29-2.51v-1.33h-.08a6.46,6.46,0,0,1-2.52,2.05,8.12,8.12,0,0,1-3.43.7,8.94,8.94,0,0,1-3.71-.75,8.52,8.52,0,0,1-2.83-2,9.38,9.38,0,0,1-1.8-3,10.36,10.36,0,0,1-.64-3.66,10.83,10.83,0,0,1,.63-3.71,8.94,8.94,0,0,1,1.78-3,8.47,8.47,0,0,1,2.8-2,8.68,8.68,0,0,1,3.7-.76,8.31,8.31,0,0,1,3.6.8,6.1,6.1,0,0,1,2.65,2.46h.07v-2.73Zm-9.7,3.18a5.16,5.16,0,0,0-2.21.46,4.66,4.66,0,0,0-1.63,1.23,5.28,5.28,0,0,0-1,1.83,7,7,0,0,0-.36,2.26,6.34,6.34,0,0,0,.36,2.12,5.89,5.89,0,0,0,1,1.83,4.84,4.84,0,0,0,1.63,1.3,4.7,4.7,0,0,0,2.18.5,5.25,5.25,0,0,0,4-1.74,6,6,0,0,0,1.08-1.83,6.4,6.4,0,0,0,.37-2.18,6.55,6.55,0,0,0-.37-2.22,5.9,5.9,0,0,0-1.08-1.86,5.11,5.11,0,0,0-1.69-1.24A5.34,5.34,0,0,0,892.73,622.11Z" transform="translate(-681.38 -433.78)"/><path d="M926.27,628.25v.61a4.26,4.26,0,0,1,0,.61H912.4a4.47,4.47,0,0,0,1.67,3.2,5.81,5.81,0,0,0,1.63.93,5.5,5.5,0,0,0,1.89.34,6,6,0,0,0,2.88-.63,5.35,5.35,0,0,0,1.94-1.72l3,2.42a9.12,9.12,0,0,1-7.81,3.64,11.12,11.12,0,0,1-3.9-.66,9.13,9.13,0,0,1-3.09-1.88,8.53,8.53,0,0,1-2-3,10.33,10.33,0,0,1-.74-4,10.51,10.51,0,0,1,.74-4,8.91,8.91,0,0,1,5.08-5,10.4,10.4,0,0,1,3.81-.7,9.51,9.51,0,0,1,3.5.63,7.46,7.46,0,0,1,2.79,1.85,8.76,8.76,0,0,1,1.84,3.07A12.74,12.74,0,0,1,926.27,628.25Zm-4.55-2a5.76,5.76,0,0,0-.24-1.67,3.92,3.92,0,0,0-.78-1.4,3.71,3.71,0,0,0-1.34-1,4.77,4.77,0,0,0-1.92-.36A5.13,5.13,0,0,0,914,623a4.52,4.52,0,0,0-1.57,3.17Z" transform="translate(-681.38 -433.78)"/><path d="M953.41,618.4a6.83,6.83,0,0,1,3.05.63,6,6,0,0,1,2.08,1.64,6.78,6.78,0,0,1,1.19,2.35,9.68,9.68,0,0,1,.38,2.73v11.37h-4.54V627a12.38,12.38,0,0,0-.12-1.67,4.44,4.44,0,0,0-.49-1.57,3.19,3.19,0,0,0-1-1.15,3,3,0,0,0-1.76-.46,3.39,3.39,0,0,0-1.82.46,3.79,3.79,0,0,0-1.25,1.17,5,5,0,0,0-.72,1.61,6.7,6.7,0,0,0-.23,1.76v9.93h-4.55v-11a4.68,4.68,0,0,0-.81-2.82,3,3,0,0,0-2.56-1.12,3.51,3.51,0,0,0-1.78.44,3.8,3.8,0,0,0-1.24,1.11,5.45,5.45,0,0,0-.72,1.58,6.85,6.85,0,0,0-.24,1.8v10h-4.55V618.93H936v2.92h.08a5.55,5.55,0,0,1,.81-1.29,6.75,6.75,0,0,1,1.21-1.1,6.09,6.09,0,0,1,1.62-.78,7,7,0,0,1,2-.28,6.19,6.19,0,0,1,3.53,1,6.32,6.32,0,0,1,2.16,2.5,6.5,6.5,0,0,1,2.42-2.56A7,7,0,0,1,953.41,618.4Z" transform="translate(-681.38 -433.78)"/><path d="M983.8,628.25v.61a4.26,4.26,0,0,1,0,.61H969.93a4.47,4.47,0,0,0,1.67,3.2,5.81,5.81,0,0,0,1.63.93,5.45,5.45,0,0,0,1.89.34,6,6,0,0,0,2.88-.63,5.32,5.32,0,0,0,1.93-1.72l3,2.42a9.12,9.12,0,0,1-7.81,3.64,11.08,11.08,0,0,1-3.9-.66,9.13,9.13,0,0,1-3.09-1.88,8.27,8.27,0,0,1-2-3,10.33,10.33,0,0,1-.74-4,10.51,10.51,0,0,1,.74-4,8.91,8.91,0,0,1,5.08-5,10.32,10.32,0,0,1,3.81-.7,9.51,9.51,0,0,1,3.5.63,7.54,7.54,0,0,1,2.79,1.85,8.91,8.91,0,0,1,1.84,3.07A12.74,12.74,0,0,1,983.8,628.25Zm-4.55-2a5.45,5.45,0,0,0-.25-1.67,3.69,3.69,0,0,0-2.12-2.37,4.68,4.68,0,0,0-1.91-.36A5.13,5.13,0,0,0,971.5,623a4.48,4.48,0,0,0-1.57,3.17Z" transform="translate(-681.38 -433.78)"/><path d="M989.22,618.93h4.32v2.92h.07a6,6,0,0,1,2.11-2.41,6.06,6.06,0,0,1,3.54-1,6.8,6.8,0,0,1,3,.63,6,6,0,0,1,2.09,1.64,6.78,6.78,0,0,1,1.19,2.35,10.05,10.05,0,0,1,.38,2.73v11.37h-4.55V627a14.17,14.17,0,0,0-.11-1.67,4.45,4.45,0,0,0-.5-1.57,3.19,3.19,0,0,0-1-1.15,3,3,0,0,0-1.76-.46,4,4,0,0,0-1.9.44,4,4,0,0,0-1.3,1.11,5.07,5.07,0,0,0-.78,1.58,6.12,6.12,0,0,0-.26,1.8v10h-4.55Z" transform="translate(-681.38 -433.78)"/><path d="M1009.68,622.57v-3.64h3.18v-5.27h4.48v5.27h4.54v3.64h-4.54V631a4.16,4.16,0,0,0,.43,2c.29.53.94.79,2,.79a5.87,5.87,0,0,0,1-.09,4.24,4.24,0,0,0,.95-.28l.15,3.56a8,8,0,0,1-1.44.36,10,10,0,0,1-1.59.13,7.29,7.29,0,0,1-3-.51,4.47,4.47,0,0,1-1.8-1.4,5.22,5.22,0,0,1-.91-2.05,12.19,12.19,0,0,1-.25-2.48v-8.49Z" transform="translate(-681.38 -433.78)"/><path d="M1056.29,616.58a6,6,0,0,0-2.76-2.1,9.25,9.25,0,0,0-7.13.09,8.91,8.91,0,0,0-2.93,2.09,9.2,9.2,0,0,0-1.9,3.11,11,11,0,0,0-.66,3.86,12,12,0,0,0,.64,4,9.14,9.14,0,0,0,1.84,3.12,8.2,8.2,0,0,0,2.86,2,9.36,9.36,0,0,0,3.75.72,8.28,8.28,0,0,0,3.83-.85,7.45,7.45,0,0,0,2.69-2.26l3.83,2.69a12.17,12.17,0,0,1-4.36,3.47,13.86,13.86,0,0,1-6,1.23,15.44,15.44,0,0,1-5.78-1,13.1,13.1,0,0,1-7.49-7.39,15,15,0,0,1-1.06-5.74,14.52,14.52,0,0,1,1.12-5.82,12.86,12.86,0,0,1,3.07-4.41,13.69,13.69,0,0,1,4.6-2.81,16.59,16.59,0,0,1,5.76-1,15.9,15.9,0,0,1,2.69.24,14.19,14.19,0,0,1,2.7.76,13.6,13.6,0,0,1,2.42,1.27,7.79,7.79,0,0,1,1.93,1.82Z" transform="translate(-681.38 -433.78)"/><path d="M1063.53,612.76a2.6,2.6,0,0,1,.82-1.92,2.8,2.8,0,0,1,2.06-.81,3,3,0,0,1,2.11.77,2.67,2.67,0,0,1,0,3.91,3,3,0,0,1-2.11.77,2.8,2.8,0,0,1-2.06-.81A2.61,2.61,0,0,1,1063.53,612.76Zm.65,6.17h4.55v18.19h-4.55Z" transform="translate(-681.38 -433.78)"/><path d="M1072.67,622.57v-3.64h3.18v-5.27h4.47v5.27h4.55v3.64h-4.55V631a4.15,4.15,0,0,0,.44,2c.29.53.94.79,2,.79a5.85,5.85,0,0,0,1-.09,4.09,4.09,0,0,0,1-.28l.15,3.56a7.55,7.55,0,0,1-1.44.36,9.83,9.83,0,0,1-1.59.13,7.23,7.23,0,0,1-3-.51,4.47,4.47,0,0,1-1.8-1.4,5.08,5.08,0,0,1-.91-2.05,11.52,11.52,0,0,1-.25-2.48v-8.49Z" transform="translate(-681.38 -433.78)"/><path d="M1086.46,618.93h5l5.08,13.23h.08l4.5-13.23h4.74l-8.6,22.1a15.73,15.73,0,0,1-1.06,2.21,5.91,5.91,0,0,1-1.37,1.63,5.52,5.52,0,0,1-1.87,1,9,9,0,0,1-2.6.34,11.22,11.22,0,0,1-1.15-.06,8.63,8.63,0,0,1-1.2-.21l.38-3.94a5.19,5.19,0,0,0,.89.21,6,6,0,0,0,.82.06,3.55,3.55,0,0,0,1.21-.18,2,2,0,0,0,.83-.52,4,4,0,0,0,.61-.89q.27-.54.57-1.26l.91-2.31Z" transform="translate(-681.38 -433.78)"/><path d="M1120.38,610.29h4.77v26.83h-4.77Z" transform="translate(-681.38 -433.78)"/><path d="M1132.09,610.29h6.33l12.47,20.09h.07V610.29h4.78v26.83h-6.07l-12.73-20.73h-.08v20.73h-4.77Z" transform="translate(-681.38 -433.78)"/><path d="M1162.67,610.29h9.51a21.29,21.29,0,0,1,5.27.68,13.77,13.77,0,0,1,4.78,2.26,11.76,11.76,0,0,1,3.44,4.13,13.6,13.6,0,0,1,1.33,6.35,12.85,12.85,0,0,1-1.33,6.06,12.46,12.46,0,0,1-3.44,4.17,14.65,14.65,0,0,1-4.78,2.41,18.94,18.94,0,0,1-5.27.77h-9.51Zm8.76,22.66a16.26,16.26,0,0,0,3.71-.43,9.74,9.74,0,0,0,3.35-1.48,7.94,7.94,0,0,0,2.45-2.82,9.57,9.57,0,0,0,.94-4.51,10.18,10.18,0,0,0-.94-4.7,7.52,7.52,0,0,0-2.45-2.84,9.09,9.09,0,0,0-3.35-1.41,18.76,18.76,0,0,0-3.71-.38h-4V633Z" transform="translate(-681.38 -433.78)"/><path d="M1192.65,610.29h17.77v4.17h-13v6.82h12.32v4h-12.32v7.58h13.68v4.24h-18.45Z" transform="translate(-681.38 -433.78)"/><path d="M1223.27,622.8l-8.34-12.51h5.76l5.53,9.17,5.46-9.17h5.5L1229,622.91l9.63,14.21h-6L1226,626.59l-6.29,10.53H1214Z" transform="translate(-681.38 -433.78)"/></svg>